<?xml version="1.0" standalone="no"?>
<!DOCTYPE svg PUBLIC "-//W3C//DTD SVG 20010904//EN"
 "http://www.w3.org/TR/2001/REC-SVG-20010904/DTD/svg10.dtd">
<svg version="1.0" xmlns="http://www.w3.org/2000/svg"
 width="1600.000000pt" height="480.000000pt" viewBox="0 0 1600.000000 480.000000"
 preserveAspectRatio="xMidYMid meet">

<g transform="translate(0.000000,480.000000) scale(0.100000,-0.100000)"
fill="#000000" stroke="none">
<path d="M9063 3788 c-4 -7 -8 -66 -8 -131 0 -99 2 -117 15 -115 12 3 15 23
15 108 0 58 4 111 8 118 9 13 1 32 -13 32 -5 0 -12 -6 -17 -12z"/>
<path d="M8650 3659 c-15 -27 -9 -64 10 -64 10 0 16 13 18 43 3 45 -10 56 -28
21z"/>
<path d="M9512 3465 c-15 -33 -15 -35 1 -35 21 0 35 20 30 41 -7 26 -18 24
-31 -6z"/>
<path d="M8181 3426 c-7 -8 -15 -31 -18 -51 -3 -20 -12 -39 -19 -42 -28 -11
-13 -24 19 -18 75 16 108 125 37 125 -4 0 -13 -6 -19 -14z"/>
<path d="M8276 3408 c-10 -39 -6 -44 14 -19 23 27 25 41 6 41 -7 0 -16 -10
-20 -22z"/>
<path d="M9724 3295 c-14 -14 -29 -25 -34 -25 -4 0 -21 -13 -36 -29 -30 -32
-51 -32 -34 0 10 18 7 19 -45 19 l-55 0 0 -138 c0 -127 -2 -140 -21 -157 -19
-18 -20 -28 -17 -251 2 -128 6 -235 10 -239 23 -23 28 18 28 214 0 173 3 211
15 221 12 10 15 43 15 176 0 164 7 194 32 139 9 -21 18 -25 55 -25 56 0 104
20 131 55 46 58 8 92 -44 40z"/>
<path d="M8640 3088 c0 -70 -1 -74 -29 -93 -28 -18 -30 -22 -26 -78 2 -33 6
-61 9 -64 11 -11 26 10 26 38 0 20 9 38 27 54 26 22 28 27 24 91 l-3 67 111
-5 c104 -5 112 -4 126 15 17 25 10 40 -15 32 -10 -3 -21 -2 -24 3 -3 5 -55 9
-116 10 l-110 2 0 -72z"/>
<path d="M9055 3120 c-3 -5 -3 -14 0 -20 3 -5 1 -18 -4 -28 -14 -26 -2 -92 15
-92 10 0 13 7 8 25 -4 16 -2 25 6 25 7 0 9 8 5 20 -6 18 -2 20 42 20 26 0 63
-4 81 -9 30 -9 33 -7 47 20 17 31 19 30 -37 33 -9 1 -20 4 -24 9 -11 11 -132
9 -139 -3z"/>
<path d="M14767 2973 c-12 -12 -7 -22 8 -17 8 4 15 10 15 15 0 11 -14 12 -23
2z"/>
<path d="M12766 2943 c-4 -9 -2 -21 4 -27 7 -7 10 -2 10 17 0 31 -5 34 -14 10z"/>
<path d="M10811 2929 c-15 -26 -10 -33 12 -16 10 7 13 17 9 24 -6 9 -11 6 -21
-8z"/>
<path d="M14736 2941 c-4 -7 -5 -15 -2 -18 9 -9 19 4 14 18 -4 11 -6 11 -12 0z"/>
<path d="M1852 2916 c-6 -14 -16 -26 -22 -26 -5 0 -10 -9 -10 -20 0 -20 1 -20
28 -3 15 9 28 17 29 18 1 1 -1 14 -5 29 l-8 28 -12 -26z"/>
<path d="M8320 2929 c0 -5 5 -7 10 -4 6 3 10 8 10 11 0 2 -4 4 -10 4 -5 0 -10
-5 -10 -11z"/>
<path d="M9073 2925 c-9 -9 -13 -47 -13 -105 0 -76 2 -91 15 -88 12 2 16 24
18 106 2 56 1 102 -2 102 -3 -1 -12 -7 -18 -15z"/>
<path d="M12446 2924 c-9 -24 -7 -27 10 -13 13 10 17 10 24 -1 7 -11 11 -11
24 -1 9 7 13 17 10 23 -3 5 -11 5 -19 -2 -9 -8 -15 -8 -20 0 -9 15 -22 12 -29
-6z"/>
<path d="M13850 2925 c-17 -21 -8 -28 15 -11 11 8 14 15 8 19 -6 4 -16 0 -23
-8z"/>
<path d="M3957 2916 c-19 -14 -24 -32 -6 -20 6 3 15 1 19 -6 5 -9 9 -8 13 3 9
24 -6 37 -26 23z"/>
<path d="M5005 2910 c-10 -11 -24 -20 -30 -20 -14 0 -25 -31 -25 -68 0 -13 4
-20 10 -17 6 3 10 19 10 36 0 30 17 38 38 17 7 -7 12 -10 13 -7 2 9 6 79 4 79
-1 0 -10 -9 -20 -20z"/>
<path d="M6567 2915 c-16 -12 -16 -13 3 -18 22 -6 32 3 22 20 -5 8 -12 8 -25
-2z"/>
<path d="M4467 2902 c-9 -10 -17 -27 -16 -38 0 -10 3 -13 6 -6 2 6 11 12 18
12 19 0 28 17 17 35 -7 14 -10 14 -25 -3z"/>
<path d="M7005 2909 c-10 -15 3 -25 16 -12 7 7 7 13 1 17 -6 3 -14 1 -17 -5z"/>
<path d="M7515 2908 c-4 -10 -13 -18 -21 -18 -8 0 -14 -9 -14 -20 0 -21 15
-27 25 -10 4 6 10 8 15 5 13 -8 21 25 11 43 -9 16 -10 16 -16 0z"/>
<path d="M13240 2909 c0 -5 5 -7 10 -4 6 3 10 8 10 11 0 2 -4 4 -10 4 -5 0
-10 -5 -10 -11z"/>
<path d="M14357 2909 c-23 -13 -22 -35 3 -42 11 -3 20 -1 20 4 0 5 -5 9 -11 9
-8 0 -7 5 1 15 16 20 10 26 -13 14z"/>
<path d="M2800 2901 c0 -5 5 -13 10 -16 6 -3 10 -2 10 4 0 5 -4 13 -10 16 -5
3 -10 2 -10 -4z"/>
<path d="M15536 2894 c-5 -14 -4 -15 9 -4 17 14 19 20 6 20 -5 0 -12 -7 -15
-16z"/>
<path d="M490 2893 c-42 -12 -44 -16 -15 -24 16 -5 33 -5 37 -1 11 11 -5 30
-22 25z"/>
<path d="M2542 2883 c-8 -15 -9 -24 -1 -28 15 -10 21 0 17 27 l-3 23 -13 -22z"/>
<path d="M3540 2864 c0 -14 3 -14 15 -4 8 7 15 14 15 16 0 2 -7 4 -15 4 -8 0
-15 -7 -15 -16z"/>
<path d="M11600 2870 c0 -5 5 -10 11 -10 5 0 7 5 4 10 -3 6 -8 10 -11 10 -2 0
-4 -4 -4 -10z"/>
<path d="M12432 2850 c0 -19 2 -27 5 -17 2 9 2 25 0 35 -3 9 -5 1 -5 -18z"/>
<path d="M957 2863 c-4 -3 -7 -11 -7 -17 0 -6 5 -5 12 2 6 6 9 14 7 17 -3 3
-9 2 -12 -2z"/>
<path d="M3092 2850 c-16 -27 -15 -30 8 -30 15 0 20 7 20 25 0 30 -11 32 -28
5z"/>
<path d="M6158 2864 c-11 -10 -10 -52 1 -59 14 -8 18 6 12 38 -3 16 -9 25 -13
21z"/>
<path d="M13900 2855 c-14 -16 -3 -20 19 -6 8 5 9 11 3 15 -5 3 -15 -1 -22 -9z"/>
<path d="M436 2835 c4 -8 10 -12 15 -9 11 6 2 24 -11 24 -5 0 -7 -7 -4 -15z"/>
<path d="M6948 2843 c7 -3 16 -2 19 1 4 3 -2 6 -13 5 -11 0 -14 -3 -6 -6z"/>
<path d="M15524 2833 c-9 -14 -61 -21 -93 -12 -10 3 -18 -12 -26 -52 -11 -51
-10 -57 7 -68 10 -6 19 -21 19 -34 1 -12 5 3 10 33 11 65 22 79 48 63 15 -10
20 -9 25 3 3 8 16 19 28 24 l23 9 -22 0 c-27 1 -30 16 -7 29 9 5 12 12 7 15
-5 3 -13 -1 -19 -10z"/>
<path d="M6528 2834 c-5 -4 -8 -16 -8 -28 0 -14 3 -17 11 -9 6 6 9 19 7 28 -1
9 -6 13 -10 9z"/>
<path d="M7316 2825 c5 -12 10 -13 20 -4 8 6 25 9 39 7 14 -3 28 -1 31 3 3 5
-17 9 -45 9 -41 0 -49 -3 -45 -15z"/>
<path d="M10827 2825 c-4 -8 -2 -17 3 -20 6 -4 10 3 10 14 0 25 -6 27 -13 6z"/>
<path d="M11940 2830 c-8 -5 -10 -10 -5 -10 6 0 17 5 25 10 8 5 11 10 5 10 -5
0 -17 -5 -25 -10z"/>
<path d="M950 2814 c0 -8 5 -12 10 -9 6 3 10 10 10 16 0 5 -4 9 -10 9 -5 0
-10 -7 -10 -16z"/>
<path d="M3913 2810 c1 -11 5 -20 9 -20 4 0 8 9 8 20 0 11 -4 20 -9 20 -6 0
-9 -9 -8 -20z"/>
<path d="M13871 2814 c0 -11 3 -14 6 -6 3 7 2 16 -1 19 -3 4 -6 -2 -5 -13z"/>
<path d="M11851 2778 c-10 -30 -10 -43 -2 -46 6 -2 11 -19 11 -37 0 -19 6 -35
14 -38 10 -4 12 0 9 14 -9 32 17 99 38 99 9 0 19 -4 21 -9 2 -5 16 2 33 16
l30 26 -41 -5 c-26 -4 -47 -1 -59 8 -30 22 -41 17 -54 -28z"/>
<path d="M13226 2811 c-4 -5 -20 -9 -36 -9 -19 1 -36 -6 -44 -17 -8 -12 -20
-16 -34 -13 -14 4 -30 -2 -47 -18 -14 -13 -33 -24 -41 -24 -21 0 -28 -26 -18
-72 11 -51 34 -63 34 -18 0 28 3 32 21 27 21 -6 59 23 59 44 0 7 9 9 22 6 23
-7 58 17 58 38 0 7 7 18 15 25 10 9 15 9 15 1 0 -6 5 -11 10 -11 13 0 13 37 1
45 -5 3 -12 1 -15 -4z m-142 -104 c12 -19 3 -32 -19 -24 -17 7 -21 51 -3 45 6
-2 16 -12 22 -21z"/>
<path d="M15033 2801 c-2 -9 -11 -27 -18 -41 -16 -29 -9 -46 19 -52 13 -2 24
5 32 20 17 35 30 46 38 33 11 -17 23 -13 29 9 3 12 14 20 27 20 13 0 20 5 18
13 -3 8 -28 12 -72 13 -54 0 -69 -3 -73 -15z m87 5 c0 -3 -4 -8 -10 -11 -5 -3
-10 -1 -10 4 0 6 5 11 10 11 6 0 10 -2 10 -4z"/>
<path d="M2489 2804 c-3 -5 -2 -27 1 -49 6 -39 6 -40 14 -12 8 27 -5 81 -15
61z"/>
<path d="M8596 2802 c-2 -4 -2 -13 2 -18 8 -12 205 5 218 19 4 4 -43 7 -104 7
-61 0 -113 -4 -116 -8z"/>
<path d="M11550 2733 c-3 -45 -1 -78 3 -74 4 4 7 41 5 82 l-3 74 -5 -82z"/>
<path d="M14792 2785 c0 -16 2 -22 5 -12 2 9 2 23 0 30 -3 6 -5 -1 -5 -18z"/>
<path d="M7300 2790 c-9 -6 -10 -10 -3 -10 6 0 13 -8 15 -17 2 -10 6 -13 9 -8
4 6 4 18 0 27 -4 13 -10 15 -21 8z"/>
<path d="M8168 2784 c-52 -28 -33 -36 68 -31 83 4 97 7 110 26 15 21 15 21
-68 21 -54 -1 -93 -6 -110 -16z"/>
<path d="M12474 2785 c-4 -9 -4 -19 0 -22 3 -4 6 -1 6 6 0 7 5 9 10 6 6 -3 10
-2 10 4 0 18 -20 23 -26 6z"/>
<path d="M5705 2780 c-3 -5 -1 -10 4 -10 6 0 11 5 11 10 0 6 -2 10 -4 10 -3 0
-8 -4 -11 -10z"/>
<path d="M6112 2765 c0 -16 2 -22 5 -12 2 9 2 23 0 30 -3 6 -5 -1 -5 -18z"/>
<path d="M14295 2780 c3 -5 8 -10 11 -10 2 0 4 5 4 10 0 6 -5 10 -11 10 -5 0
-7 -4 -4 -10z"/>
<path d="M3030 2766 c0 -8 5 -18 10 -21 6 -3 10 3 10 14 0 12 -4 21 -10 21 -5
0 -10 -6 -10 -14z"/>
<path d="M10633 2773 c-18 -7 -27 -71 -15 -96 6 -12 13 -29 15 -37 3 -8 6 1 6
21 1 47 21 63 66 56 31 -5 37 -3 50 23 8 16 15 31 15 35 0 6 -120 5 -137 -2z"/>
<path d="M12206 2754 c-29 -20 -35 -28 -25 -35 24 -15 35 -10 52 26 9 19 16
35 14 35 -1 0 -20 -12 -41 -26z"/>
<path d="M13676 2758 c-16 -25 -22 -65 -13 -88 3 -8 8 -22 10 -30 3 -8 6 -1 6
16 1 46 22 68 60 62 26 -4 36 0 52 20 10 14 19 29 19 33 0 5 -27 9 -60 9 -51
0 -62 -3 -74 -22z"/>
<path d="M14125 2744 c-17 -42 -19 -64 -6 -64 6 0 12 -15 14 -32 l4 -33 2 35
c2 44 39 74 80 65 23 -5 29 -2 39 20 6 14 17 25 24 26 37 2 -35 18 -84 18 -57
1 -58 1 -73 -35z"/>
<path d="M2122 2740 c-26 -34 -28 -60 -7 -60 10 0 15 -10 15 -31 0 -16 4 -28
9 -25 5 3 7 14 4 24 -2 10 3 24 11 31 9 8 16 20 16 27 0 8 9 14 20 14 11 0 20
-5 20 -11 0 -14 23 10 40 40 11 22 11 23 -6 16 -36 -15 -62 -17 -68 -6 -12 19
-31 12 -54 -19z"/>
<path d="M3462 2750 c-6 -11 -12 -29 -12 -40 0 -24 -15 -27 -24 -4 -4 10 -15
14 -33 12 -34 -4 -43 -33 -12 -41 18 -5 20 -11 15 -32 l-7 -26 23 20 c25 24
34 26 43 11 10 -16 33 6 40 40 7 34 30 56 40 40 9 -15 28 -12 22 4 -3 7 0 19
6 25 8 8 7 11 -4 11 -8 0 -21 -6 -27 -12 -10 -10 -17 -10 -32 0 -25 15 -23 16
-38 -8z"/>
<path d="M7541 2746 c0 -11 -8 -28 -18 -38 -9 -10 -11 -18 -6 -18 18 0 35 28
30 52 -3 18 -5 19 -6 4z"/>
<path d="M12420 2751 c0 -5 9 -7 20 -4 11 3 20 7 20 9 0 2 -9 4 -20 4 -11 0
-20 -4 -20 -9z"/>
<path d="M14350 2750 c-13 -8 -12 -10 3 -10 9 0 17 5 17 10 0 12 -1 12 -20 0z"/>
<path d="M3060 2741 c0 -5 9 -7 20 -4 11 3 20 7 20 9 0 2 -9 4 -20 4 -11 0
-20 -4 -20 -9z"/>
<path d="M5697 2736 c-4 -11 -16 -13 -40 -9 -28 4 -35 2 -39 -15 -7 -25 -1
-32 24 -32 10 0 18 7 18 15 0 8 5 15 10 15 6 0 10 -9 10 -20 0 -11 4 -20 10
-20 13 0 30 34 30 59 0 24 -15 28 -23 7z"/>
<path d="M12765 2740 c3 -5 8 -10 11 -10 2 0 4 5 4 10 0 6 -5 10 -11 10 -5 0
-7 -4 -4 -10z"/>
<path d="M956 2731 c-4 -7 -5 -15 -2 -18 9 -9 19 4 14 18 -4 11 -6 11 -12 0z"/>
<path d="M6512 2715 c0 -16 2 -22 5 -12 2 9 2 23 0 30 -3 6 -5 -1 -5 -18z"/>
<path d="M6995 2730 c-3 -5 -1 -10 4 -10 6 0 11 5 11 10 0 6 -2 10 -4 10 -3 0
-8 -4 -11 -10z"/>
<path d="M11140 2724 c0 -8 5 -12 10 -9 6 4 8 11 5 16 -9 14 -15 11 -15 -7z"/>
<path d="M12438 2727 c-22 -9 -28 -17 -28 -42 0 -19 7 -35 20 -43 18 -11 20
-10 20 16 0 29 26 62 48 62 7 0 12 5 12 10 0 13 -37 11 -72 -3z"/>
<path d="M726 2708 c-13 -62 -13 -95 -1 -111 17 -24 25 -21 25 11 1 39 23 64
55 60 20 -2 30 4 46 30 l21 32 -71 0 c-65 0 -71 -2 -75 -22z"/>
<path d="M5935 2700 c-15 -30 -20 -76 -9 -104 10 -26 24 -18 24 12 0 35 27 62
62 62 25 0 58 27 58 48 0 8 -21 12 -60 12 -56 0 -60 -2 -75 -30z"/>
<path d="M12716 2715 c4 -8 8 -15 10 -15 2 0 4 7 4 15 0 8 -4 15 -10 15 -5 0
-7 -7 -4 -15z"/>
<path d="M14334 2714 c3 -9 6 -20 6 -25 0 -6 4 -8 9 -5 12 8 2 46 -11 46 -6 0
-7 -7 -4 -16z"/>
<path d="M200 2700 c-27 -20 -22 -33 16 -44 14 -4 24 -2 27 8 4 10 1 13 -9 9
-16 -6 -20 12 -4 22 12 7 13 25 3 25 -5 0 -19 -9 -33 -20z"/>
<path d="M4502 2700 c0 -14 2 -19 5 -12 2 6 2 18 0 25 -3 6 -5 1 -5 -13z"/>
<path d="M4717 2702 c-15 -9 -27 -20 -27 -24 0 -10 58 -37 64 -30 13 12 5 31
-10 25 -14 -5 -15 -3 -4 16 16 30 10 33 -23 13z"/>
<path d="M4920 2705 c0 -8 4 -15 9 -15 5 0 14 7 21 15 10 13 9 15 -9 15 -12 0
-21 -6 -21 -15z"/>
<path d="M6147 2695 c-10 -14 -16 -29 -12 -34 3 -5 -2 -16 -10 -25 -8 -8 -15
-19 -14 -23 2 -8 -2 -21 -21 -68 -4 -11 -26 -29 -49 -40 -32 -16 -41 -25 -41
-45 l1 -25 18 23 c23 26 31 28 31 5 0 -13 7 -10 30 12 17 16 30 35 30 42 0 7
5 13 11 13 6 0 8 7 5 16 -4 9 -2 22 4 29 5 6 11 22 13 34 2 13 8 26 13 29 7 6
18 83 11 82 -1 0 -10 -12 -20 -25z"/>
<path d="M8584 2695 c-8 -31 0 -42 20 -26 14 12 11 51 -5 51 -5 0 -11 -11 -15
-25z"/>
<path d="M13938 2714 c-5 -4 -8 -15 -8 -25 0 -9 -9 -19 -20 -22 -11 -3 -20
-12 -20 -21 0 -20 16 -21 24 -1 7 20 24 19 28 -2 3 -16 4 -15 9 2 7 26 -4 79
-13 69z"/>
<path d="M14770 2711 c0 -6 4 -13 10 -16 6 -3 7 1 4 9 -7 18 -14 21 -14 7z"/>
<path d="M1855 2700 c-3 -5 -1 -10 4 -10 6 0 11 5 11 10 0 6 -2 10 -4 10 -3 0
-8 -4 -11 -10z"/>
<path d="M455 2680 c-27 -10 -51 -25 -53 -34 -2 -9 1 -16 6 -16 5 0 12 -10 16
-22 5 -22 7 -21 23 12 10 19 28 39 41 45 12 5 22 15 22 22 0 7 -1 13 -2 12 -2
0 -25 -9 -53 -19z"/>
<path d="M961 2677 c-1 -22 -7 -29 -30 -33 -26 -5 -29 -10 -29 -45 -1 -22 -8
-46 -16 -55 -9 -8 -16 -19 -16 -24 0 -5 -9 -12 -20 -15 -13 -4 -17 -11 -13
-18 5 -7 8 -25 8 -41 0 -16 5 -31 11 -33 7 -2 10 5 7 20 -3 14 2 29 11 36 9 8
16 19 16 25 0 6 9 18 20 26 11 8 20 26 20 40 0 38 15 57 33 42 13 -11 14 -6
10 35 -6 59 -11 77 -12 40z"/>
<path d="M2530 2684 c0 -8 5 -12 10 -9 6 4 8 11 5 16 -9 14 -15 11 -15 -7z"/>
<path d="M4995 2679 c-11 -4 -32 -8 -46 -8 -31 -1 -45 -26 -22 -39 28 -16 25
-72 -3 -59 -3 1 -10 -6 -15 -15 -11 -21 -39 -24 -40 -5 0 6 -4 2 -9 -10 -12
-29 -7 -138 5 -138 6 0 11 14 13 30 7 89 11 95 47 95 l35 0 -1 50 c-2 50 12
80 37 80 12 0 30 18 23 24 -2 2 -13 0 -24 -5z"/>
<path d="M10895 2680 c-3 -5 -19 -10 -34 -10 -35 0 -46 -13 -55 -64 -8 -43
-45 -106 -62 -106 -6 0 -23 -9 -38 -21 -14 -11 -26 -17 -26 -13 0 4 -16 -10
-35 -30 -19 -21 -35 -44 -35 -53 0 -9 -7 -21 -15 -27 -13 -10 -13 -13 4 -23
16 -10 23 -10 36 4 10 9 14 25 11 37 -7 28 7 48 30 45 28 -4 74 10 74 22 0 6
16 28 36 48 40 43 59 76 69 120 8 39 33 61 46 40 6 -10 9 -7 9 14 0 28 -5 34
-15 17z"/>
<path d="M14310 2649 c0 -35 -6 -47 -39 -78 -36 -33 -39 -38 -26 -55 12 -16
17 -17 30 -6 8 7 15 18 15 25 0 7 11 20 24 30 20 15 24 25 19 48 -4 21 -1 33
10 42 15 11 14 13 -8 23 -24 11 -25 11 -25 -29z"/>
<path d="M3327 2673 c-10 -9 -8 -35 2 -52 8 -12 12 -12 29 0 19 14 19 15 2 37
-20 24 -23 25 -33 15z"/>
<path d="M4405 2670 c-3 -5 -1 -10 4 -10 6 0 11 5 11 10 0 6 -2 10 -4 10 -3 0
-8 -4 -11 -10z"/>
<path d="M11140 2643 c0 -20 3 -33 7 -29 11 11 12 66 2 66 -5 0 -9 -16 -9 -37z"/>
<path d="M14767 2616 l6 -64 -62 -7 c-54 -6 -61 -9 -61 -29 0 -18 6 -22 35
-22 30 0 34 3 29 19 -6 18 -3 19 29 13 l35 -7 4 81 c2 58 0 80 -9 80 -9 0 -11
-17 -6 -64z"/>
<path d="M6996 2648 c-9 -36 -7 -78 4 -78 6 0 10 12 11 28 0 15 2 37 5 50 2
12 0 22 -5 22 -5 0 -11 -10 -15 -22z"/>
<path d="M12746 2661 c-4 -7 -5 -15 -2 -18 9 -9 19 4 14 18 -4 11 -6 11 -12 0z"/>
<path d="M2787 2654 c-8 -8 1 -24 14 -24 5 0 9 7 9 15 0 15 -12 20 -23 9z"/>
<path d="M3090 2639 c0 -13 -4 -18 -12 -13 -7 4 -8 3 -4 -5 4 -7 -2 -15 -16
-20 -21 -9 -20 -9 9 -8 30 2 33 5 33 35 0 17 -2 32 -5 32 -3 0 -5 -9 -5 -21z"/>
<path d="M3963 2634 c-25 -23 -30 -54 -10 -54 11 0 43 71 34 75 -1 1 -12 -9
-24 -21z"/>
<path d="M6567 2635 c-24 -23 -28 -55 -7 -55 9 0 44 70 38 75 -2 3 -16 -7 -31
-20z"/>
<path d="M2530 2603 c0 -25 3 -43 6 -40 10 9 11 87 2 87 -5 0 -8 -21 -8 -47z"/>
<path d="M9054 2641 c3 -5 7 -66 8 -135 1 -108 3 -124 17 -117 12 7 14 29 12
120 l-2 111 54 -4 c44 -3 56 0 65 15 12 18 8 19 -74 19 -48 0 -83 -4 -80 -9z"/>
<path d="M8580 2554 c0 -76 15 -134 34 -134 5 0 6 31 2 69 -4 38 -4 80 0 95 5
22 12 26 43 26 20 0 42 -5 49 -12 13 -13 17 -11 26 17 5 19 1 20 -74 20 l-80
0 0 -81z"/>
<path d="M8781 2621 c-9 -16 -7 -20 13 -25 14 -3 31 -3 39 0 8 3 18 1 22 -5
10 -18 20 -13 38 19 l18 30 -60 0 c-49 0 -62 -4 -70 -19z"/>
<path d="M9230 2621 c-17 -32 -11 -45 9 -20 15 18 22 21 33 12 11 -10 16 -8
26 8 11 17 9 19 -23 19 -24 0 -37 -6 -45 -19z"/>
<path d="M11610 2605 c0 -8 5 -15 10 -15 6 0 10 7 10 15 0 8 -4 15 -10 15 -5
0 -10 -7 -10 -15z"/>
<path d="M12390 2601 c0 -10 6 -23 13 -28 14 -11 37 -11 37 0 0 4 0 14 0 22 0
9 -6 12 -15 9 -8 -4 -15 -1 -15 5 0 6 -4 11 -10 11 -5 0 -10 -8 -10 -19z"/>
<path d="M12747 2600 c-4 -8 -8 -58 -9 -110 -3 -84 -5 -95 -20 -92 -10 2 -18
-2 -18 -8 0 -5 8 -10 17 -10 15 0 15 -1 1 -12 -19 -16 -31 -48 -18 -48 6 0 20
10 32 22 20 20 23 35 26 123 4 109 0 160 -11 135z"/>
<path d="M13835 2563 c-19 -25 -35 -49 -35 -53 0 -7 -50 -24 -103 -35 -29 -6
-47 -36 -47 -82 0 -14 -7 -31 -15 -37 -13 -10 -13 -13 4 -23 16 -10 23 -10 36
4 10 9 14 25 11 37 -3 11 2 28 11 38 17 19 73 25 73 7 0 -17 20 1 20 19 1 9
19 35 40 57 23 23 40 49 40 62 0 32 18 29 23 -4 3 -23 4 -22 6 8 2 56 -22 57
-64 2z"/>
<path d="M2821 2573 c0 -17 -5 -33 -11 -35 -6 -2 -6 -9 0 -18 15 -25 26 1 19
45 -6 37 -6 38 -8 8z"/>
<path d="M12347 2593 c-10 -9 -9 -63 1 -63 4 0 12 11 18 25 9 19 9 27 -1 35
-6 5 -15 7 -18 3z"/>
<path d="M390 2562 c0 -12 8 -26 19 -31 20 -11 31 -5 31 17 0 9 -3 12 -7 9 -3
-4 -15 0 -25 10 -17 15 -18 15 -18 -5z"/>
<path d="M1565 2556 c-9 -13 -17 -54 -20 -92 -2 -38 -2 -58 1 -44 3 14 10 29
15 35 5 5 9 16 9 25 0 9 8 24 18 33 15 13 20 14 36 1 18 -13 21 -11 33 24 7
20 13 38 13 40 0 1 -20 2 -45 2 -36 0 -48 -5 -60 -24z"/>
<path d="M3055 2570 c-4 -6 -3 -16 3 -22 13 -13 23 4 13 21 -7 10 -10 10 -16
1z"/>
<path d="M7252 2573 c-20 -8 -39 -54 -44 -108 -3 -27 -3 -42 -1 -32 2 9 9 17
14 17 5 0 9 9 9 20 0 11 9 29 20 40 19 19 22 19 44 5 27 -18 35 -11 41 35 4
29 2 30 -33 29 -20 0 -43 -3 -50 -6z"/>
<path d="M11148 2574 c-5 -4 -8 -25 -8 -46 0 -23 -5 -38 -12 -38 -9 0 -9 -3 0
-12 21 -21 38 11 32 60 -3 24 -8 40 -12 36z"/>
<path d="M14995 2569 c-4 -6 -5 -13 -2 -16 7 -7 27 6 27 18 0 12 -17 12 -25
-2z"/>
<path d="M1336 2561 c-3 -5 1 -11 9 -15 9 -3 15 0 15 9 0 16 -16 20 -24 6z"/>
<path d="M4194 2535 c-18 -44 -18 -59 1 -75 13 -11 15 -8 15 20 0 24 4 31 15
26 9 -3 15 0 15 9 0 20 10 19 25 -2 11 -15 14 -14 29 15 9 17 16 33 16 37 0 3
-23 5 -51 5 -48 0 -51 -2 -65 -35z"/>
<path d="M15403 2563 c-15 -5 -17 -23 -4 -23 5 0 11 7 15 15 3 8 4 15 3 14 -1
0 -8 -3 -14 -6z"/>
<path d="M3945 2550 c-3 -5 -1 -10 4 -10 6 0 11 5 11 10 0 6 -2 10 -4 10 -3 0
-8 -4 -11 -10z"/>
<path d="M5580 2557 c0 -2 11 -17 25 -33 19 -23 25 -25 25 -11 0 9 -4 17 -10
17 -5 0 -10 7 -10 15 0 8 -7 15 -15 15 -8 0 -15 -2 -15 -3z"/>
<path d="M5715 2549 c-4 -6 -5 -13 -2 -16 7 -7 27 6 27 18 0 12 -17 12 -25 -2z"/>
<path d="M6991 2544 c0 -11 3 -14 6 -6 3 7 2 16 -1 19 -3 4 -6 -2 -5 -13z"/>
<path d="M10635 2550 c-3 -5 -2 -10 4 -10 5 0 13 5 16 10 3 6 2 10 -4 10 -5 0
-13 -4 -16 -10z"/>
<path d="M1827 2533 c-4 -3 -7 -22 -7 -42 0 -41 15 -32 25 17 6 29 -2 41 -18
25z"/>
<path d="M7486 2528 c-3 -7 -7 -39 -10 -71 -2 -32 -12 -69 -20 -82 -17 -26
-15 -90 3 -108 8 -8 11 -3 11 19 0 17 3 34 7 38 4 4 6 23 4 42 -1 18 2 34 7
34 5 0 12 8 16 18 3 9 9 23 12 30 4 8 0 10 -10 6 -11 -4 -16 -1 -16 10 0 9 8
16 18 16 16 1 16 1 0 11 -10 5 -18 15 -18 20 0 6 5 7 10 4 6 -3 10 1 10 9 0
19 -19 21 -24 4z"/>
<path d="M11920 2526 c0 -2 11 -6 25 -8 14 -3 25 -1 25 3 0 5 -11 9 -25 9 -14
0 -25 -2 -25 -4z"/>
<path d="M3060 2510 c0 -5 5 -10 10 -10 6 0 10 5 10 10 0 6 -4 10 -10 10 -5 0
-10 -4 -10 -10z"/>
<path d="M11625 2510 c-4 -6 -2 -17 4 -23 15 -15 25 -2 13 19 -7 12 -11 13
-17 4z"/>
<path d="M5717 2487 c-9 -14 -17 -31 -17 -37 0 -5 -5 -10 -11 -10 -5 0 -8 -4
-4 -9 3 -5 1 -12 -5 -16 -5 -3 -10 -13 -10 -22 0 -21 -29 -42 -57 -43 -18 0
-23 -6 -23 -24 0 -14 -5 -28 -12 -32 -8 -5 -6 -10 8 -15 31 -12 41 -10 47 11
3 11 14 20 25 20 20 0 32 24 32 68 0 12 5 22 10 22 6 0 10 10 10 22 0 12 7 29
16 39 9 10 14 25 12 35 -3 15 -6 14 -21 -9z"/>
<path d="M13216 2494 c-3 -9 -2 -23 4 -32 8 -14 9 -12 10 10 0 14 6 29 13 31
7 4 6 6 -4 6 -9 1 -20 -6 -23 -15z"/>
<path d="M6559 2493 c0 -5 -2 -20 -4 -35 -2 -15 1 -30 6 -33 5 -4 9 12 9 34 0
23 -2 41 -5 41 -3 0 -5 -3 -6 -7z"/>
<path d="M2226 2481 c-4 -7 -5 -15 -2 -18 9 -9 19 4 14 18 -4 11 -6 11 -12 0z"/>
<path d="M2543 2478 c-6 -7 -13 -20 -16 -29 -4 -13 -1 -16 14 -12 12 3 19 14
19 29 0 27 -3 29 -17 12z"/>
<path d="M3046 2482 c-3 -5 1 -9 9 -9 8 0 12 4 9 9 -3 4 -7 8 -9 8 -2 0 -6 -4
-9 -8z"/>
<path d="M3868 2483 c12 -2 30 -2 40 0 9 3 -1 5 -23 4 -22 0 -30 -2 -17 -4z"/>
<path d="M6483 2483 c9 -2 23 -2 30 0 6 3 -1 5 -18 5 -16 0 -22 -2 -12 -5z"/>
<path d="M6920 2486 c0 -2 7 -6 15 -10 8 -3 15 -1 15 4 0 6 -7 10 -15 10 -8 0
-15 -2 -15 -4z"/>
<path d="M6989 2460 c-7 -35 -4 -48 7 -38 3 4 4 21 2 40 l-3 33 -6 -35z"/>
<path d="M11922 2465 c0 -16 2 -22 5 -12 2 9 2 23 0 30 -3 6 -5 -1 -5 -18z"/>
<path d="M340 2465 c0 -8 5 -15 10 -15 6 0 10 7 10 15 0 8 -4 15 -10 15 -5 0
-10 -7 -10 -15z"/>
<path d="M3000 2470 c0 -5 -7 -10 -16 -10 -8 0 -20 -14 -26 -31 -6 -18 -16
-28 -23 -25 -22 8 -33 -16 -37 -82 -4 -59 -3 -63 17 -60 14 2 21 12 23 33 5
37 19 55 43 55 15 0 17 6 12 34 -4 26 -1 35 13 40 9 4 21 2 24 -4 5 -8 9 -6
14 5 9 24 8 25 -16 26 -13 0 -17 3 -10 6 6 2 10 9 6 14 -7 12 -24 12 -24 -1z"/>
<path d="M3950 2461 c-5 -11 -7 -22 -2 -25 4 -2 12 7 19 20 13 28 -2 33 -17 5z"/>
<path d="M15134 2456 c-6 -27 -74 -86 -99 -86 -18 0 -28 -21 -23 -46 3 -16 4
-16 22 1 14 15 22 16 36 7 15 -9 22 -4 47 31 17 23 32 59 35 80 4 41 -8 51
-18 13z"/>
<path d="M15520 2469 c0 -6 -9 -8 -20 -4 -11 4 -20 2 -20 -4 0 -6 7 -11 16
-11 22 0 12 -23 -14 -35 -12 -5 -25 -18 -28 -27 -3 -11 -15 -18 -29 -18 -16 0
-25 -7 -29 -26 -9 -35 -1 -41 24 -19 16 14 23 15 34 6 19 -16 36 -6 36 20 0
10 6 19 14 19 8 0 16 16 20 42 4 23 12 48 18 55 8 10 6 13 -6 13 -9 0 -16 -5
-16 -11z"/>
<path d="M3530 2460 c-13 -8 -12 -10 3 -10 9 0 17 5 17 10 0 12 -1 12 -20 0z"/>
<path d="M6500 2460 c-13 -8 -12 -10 3 -10 9 0 17 5 17 10 0 12 -1 12 -20 0z"/>
<path d="M1352 2451 c2 -7 7 -12 11 -12 12 1 9 15 -3 20 -7 2 -11 -2 -8 -8z"/>
<path d="M3855 2450 c-4 -6 6 -7 27 -3 44 8 48 13 10 13 -17 0 -34 -4 -37 -10z"/>
<path d="M6930 2450 c0 -5 5 -10 10 -10 6 0 10 5 10 10 0 6 -4 10 -10 10 -5 0
-10 -4 -10 -10z"/>
<path d="M11396 2438 c-3 -13 -6 -34 -6 -47 0 -14 -7 -33 -17 -43 -22 -24 -9
-35 22 -18 16 9 25 22 25 37 0 36 27 60 51 45 16 -10 21 -8 34 18 l16 30 -60
0 c-52 0 -59 -2 -65 -22z"/>
<path d="M13142 2440 c-6 -16 -6 -26 0 -29 16 -6 26 13 18 34 -7 19 -8 19 -18
-5z"/>
<path d="M14132 2440 c-16 -15 -22 -32 -21 -58 1 -26 3 -31 7 -17 4 11 13 29
19 40 11 17 14 18 23 5 5 -8 10 -10 10 -4 0 7 9 14 20 17 11 3 20 12 20 21 0
23 -51 20 -78 -4z"/>
<path d="M1808 2421 c-6 -14 -15 -35 -20 -47 -12 -27 -6 -96 9 -101 7 -3 14
16 18 54 3 32 13 70 21 85 18 33 18 35 -2 35 -9 0 -21 -12 -26 -26z"/>
<path d="M11120 2440 c-13 -8 -12 -10 3 -10 9 0 17 5 17 10 0 12 -1 12 -20 0z"/>
<path d="M2192 2415 c0 -16 2 -22 5 -12 2 9 2 23 0 30 -3 6 -5 -1 -5 -18z"/>
<path d="M340 2420 c0 -5 5 -10 10 -10 6 0 10 5 10 10 0 6 -4 10 -10 10 -5 0
-10 -4 -10 -10z"/>
<path d="M785 2409 c-4 -11 -4 -23 -2 -26 9 -8 27 7 27 22 0 23 -18 27 -25 4z"/>
<path d="M3510 2416 c0 -8 4 -17 9 -20 5 -4 7 3 4 14 -6 23 -13 26 -13 6z"/>
<path d="M5992 2426 c4 -5 3 -15 -4 -23 -16 -19 -2 -28 16 -10 14 13 14 16 -2
28 -9 7 -14 9 -10 5z"/>
<path d="M11550 2411 c-20 -16 -22 -22 -11 -35 11 -13 15 -12 36 12 35 41 19
56 -25 23z"/>
<path d="M13041 2397 c-30 -18 -32 -21 -15 -28 21 -7 40 4 55 33 12 23 3 22
-40 -5z"/>
<path d="M1126 2394 c-3 -9 -6 -27 -6 -40 0 -14 -7 -36 -16 -50 -21 -31 -15
-37 19 -21 19 8 27 20 27 38 0 35 25 57 49 42 14 -9 20 -5 34 18 l16 29 -58 0
c-44 0 -60 -4 -65 -16z"/>
<path d="M11940 2400 c-8 -4 -25 -12 -37 -18 -13 -7 -29 -12 -36 -12 -14 0
-57 -40 -57 -53 0 -14 33 -6 45 10 10 13 16 14 26 6 22 -17 49 -12 49 10 0 10
9 21 20 24 11 3 20 11 20 19 0 17 -12 23 -30 14z"/>
<path d="M13170 2390 c-11 -11 -20 -26 -20 -32 0 -9 -4 -8 -10 2 -11 18 -43 3
-48 -23 -2 -11 8 -16 42 -19 45 -3 46 -2 46 26 0 16 7 38 17 48 22 25 -2 23
-27 -2z"/>
<path d="M1285 2368 c-23 -21 -27 -30 -17 -40 15 -15 62 30 53 52 -5 12 -12
10 -36 -12z"/>
<path d="M4423 2382 c-14 -23 -20 -93 -9 -111 12 -19 33 28 37 83 4 48 -8 60
-28 28z"/>
<path d="M4325 2379 c-11 -17 1 -21 15 -4 8 9 8 15 2 15 -6 0 -14 -5 -17 -11z"/>
<path d="M8620 2380 c0 -5 5 -10 10 -10 6 0 10 5 10 10 0 6 -4 10 -10 10 -5 0
-10 -4 -10 -10z"/>
<path d="M14706 2375 c-3 -8 -1 -15 4 -15 6 0 10 7 10 15 0 8 -2 15 -4 15 -2
0 -6 -7 -10 -15z"/>
<path d="M3445 2370 c-3 -5 3 -10 14 -10 11 0 23 5 26 10 3 6 -3 10 -14 10
-11 0 -23 -4 -26 -10z"/>
<path d="M12358 2373 c-9 -2 -24 -15 -32 -29 -16 -23 -15 -24 4 -24 11 0 20 7
20 15 0 8 7 15 15 15 8 0 15 7 15 15 0 8 -1 14 -2 14 -2 -1 -11 -3 -20 -6z"/>
<path d="M14627 2372 c-40 -3 -50 -7 -59 -28 -14 -30 -1 -45 17 -20 9 12 20
16 31 12 10 -4 25 0 35 10 10 9 23 13 28 9 6 -3 11 -2 11 4 0 14 -10 16 -63
13z"/>
<path d="M2220 2360 c0 -5 -8 -10 -17 -10 -22 0 -103 -39 -103 -50 0 -5 -7
-16 -16 -24 -14 -15 -14 -16 4 -16 11 0 25 7 32 15 9 11 22 14 41 10 22 -5 31
-2 41 14 7 12 18 21 25 21 7 0 13 11 13 25 0 14 -4 25 -10 25 -5 0 -10 -4 -10
-10z"/>
<path d="M11093 2351 c-35 -29 -28 -37 32 -37 46 0 55 3 55 18 0 10 6 18 14
18 9 0 12 -9 9 -27 l-4 -28 13 25 c14 23 13 26 -11 37 -38 18 -83 15 -108 -6z"/>
<path d="M11630 2361 c0 -6 5 -13 10 -16 6 -3 10 1 10 9 0 9 -4 16 -10 16 -5
0 -10 -4 -10 -9z"/>
<path d="M14722 2354 c-7 -8 -24 -14 -37 -14 -27 0 -34 -17 -11 -26 13 -5 74
42 65 50 -2 2 -10 -2 -17 -10z"/>
<path d="M1547 2353 c-10 -18 -17 -83 -9 -83 4 0 14 15 21 34 8 19 24 37 40
43 25 11 25 11 -11 12 -20 1 -39 -2 -41 -6z"/>
<path d="M3321 2346 c-8 -9 -8 -16 -2 -20 6 -4 15 3 21 14 12 23 -2 27 -19 6z"/>
<path d="M3488 2344 c-16 -8 -28 -21 -28 -29 0 -18 -17 -20 -23 -2 -3 9 -10 7
-25 -7 -24 -21 -21 -35 6 -34 9 1 29 -2 45 -5 24 -7 27 -5 27 20 0 14 7 35 17
45 22 24 14 29 -19 12z"/>
<path d="M4173 2333 c-7 -15 -13 -36 -12 -47 0 -15 5 -10 17 17 12 27 23 37
39 37 13 0 23 5 23 10 0 6 -12 10 -27 10 -21 0 -31 -7 -40 -27z"/>
<path d="M7206 2333 c-4 -16 -9 -36 -12 -45 -10 -32 12 -19 25 16 8 19 24 37
40 43 25 11 25 11 -10 12 -32 1 -38 -2 -43 -26z"/>
<path d="M8960 2336 c-16 -9 -57 -13 -117 -13 -57 1 -97 -3 -104 -10 -16 -16
59 -27 178 -28 83 0 95 2 115 23 20 19 21 24 8 32 -21 13 -50 12 -80 -4z"/>
<path d="M14240 2340 c0 -5 5 -10 10 -10 6 0 10 5 10 10 0 6 -4 10 -10 10 -5
0 -10 -4 -10 -10z"/>
<path d="M14270 2331 c-13 -26 -13 -31 4 -25 16 6 29 44 15 44 -4 0 -13 -9
-19 -19z"/>
<path d="M3347 2333 c-12 -11 -8 -23 8 -23 8 0 15 7 15 15 0 16 -12 20 -23 8z"/>
<path d="M9542 2301 c-17 -56 -16 -64 8 -51 16 8 19 18 15 47 -6 49 -10 50
-23 4z"/>
<path d="M14122 2315 c0 -16 2 -22 5 -12 2 9 2 23 0 30 -3 6 -5 -1 -5 -18z"/>
<path d="M354 2320 c-28 -11 -37 -35 -18 -50 11 -10 14 -9 14 8 0 12 8 25 17
31 24 13 14 21 -13 11z"/>
<path d="M3820 2323 c-38 -4 -60 -25 -60 -57 0 -20 1 -20 15 2 17 24 65 26 87
4 17 -17 38 -15 38 4 0 10 6 14 15 10 8 -3 15 -2 15 3 0 12 -39 21 -46 10 -3
-5 -12 -9 -20 -9 -11 0 -13 6 -9 20 3 11 5 19 3 18 -2 0 -19 -3 -38 -5z"/>
<path d="M3910 2319 c0 -5 5 -7 10 -4 6 3 10 8 10 11 0 2 -4 4 -10 4 -5 0 -10
-5 -10 -11z"/>
<path d="M4863 2319 c-18 -6 -23 -16 -23 -44 0 -22 4 -34 10 -30 6 3 10 17 10
30 0 13 8 28 17 34 24 13 13 21 -14 10z"/>
<path d="M5510 2320 c-11 -7 -12 -12 -3 -21 8 -8 14 -6 22 10 12 22 5 27 -19
11z"/>
<path d="M6428 2322 c-40 -3 -71 -33 -61 -59 4 -11 9 -9 20 7 11 16 22 20 39
16 17 -5 26 -1 34 15 14 25 14 25 -32 21z"/>
<path d="M6515 2320 c-3 -5 -2 -10 4 -10 5 0 13 5 16 10 3 6 2 10 -4 10 -5 0
-13 -4 -16 -10z"/>
<path d="M6802 2301 c-16 -18 -19 -27 -10 -32 7 -4 17 -1 23 8 8 11 20 14 39
9 19 -5 28 -2 32 9 4 8 13 15 21 15 12 0 13 -3 3 -15 -12 -15 -6 -35 11 -35 5
0 9 7 9 16 0 11 6 15 20 11 29 -8 24 8 -7 24 -46 23 -114 18 -141 -10z"/>
<path d="M6950 2319 c0 -5 5 -7 10 -4 6 3 10 8 10 11 0 2 -4 4 -10 4 -5 0 -10
-5 -10 -11z"/>
<path d="M1356 2305 c4 -8 8 -15 10 -15 2 0 4 7 4 15 0 8 -4 15 -10 15 -5 0
-7 -7 -4 -15z"/>
<path d="M2470 2295 c-17 -18 -21 -28 -13 -36 7 -7 17 -8 25 -3 7 5 38 9 68 9
61 0 75 19 30 42 -41 21 -84 16 -110 -12z"/>
<path d="M722 2290 c0 -14 2 -19 5 -12 2 6 2 18 0 25 -3 6 -5 1 -5 -13z"/>
<path d="M5922 2290 c0 -14 2 -19 5 -12 2 6 2 18 0 25 -3 6 -5 1 -5 -13z"/>
<path d="M6490 2301 c0 -6 -7 -11 -15 -11 -20 0 -19 -16 1 -24 25 -10 34 -7
34 10 0 10 6 14 15 10 8 -3 15 -1 15 4 0 6 -4 10 -9 10 -5 0 -16 3 -25 6 -9 3
-16 1 -16 -5z"/>
<path d="M830 2280 c0 -11 5 -20 10 -20 6 0 10 9 10 20 0 11 -4 20 -10 20 -5
0 -10 -9 -10 -20z"/>
<path d="M870 2285 c0 -8 2 -15 4 -15 2 0 6 7 10 15 3 8 1 15 -4 15 -6 0 -10
-7 -10 -15z"/>
<path d="M6045 2290 c3 -5 8 -10 11 -10 2 0 4 5 4 10 0 6 -5 10 -11 10 -5 0
-7 -4 -4 -10z"/>
<path d="M8650 2261 c-13 -26 -13 -31 5 -31 9 0 15 9 15 25 0 30 -6 32 -20 6z"/>
<path d="M10124 2200 c-7 -14 -15 -58 -19 -97 -6 -63 -10 -73 -26 -73 -11 0
-22 -7 -25 -15 -4 -10 -20 -15 -44 -15 -21 0 -56 -6 -78 -14 -23 -8 -77 -20
-121 -27 l-81 -11 0 -129 c0 -71 3 -129 8 -129 21 1 27 23 27 105 l0 90 140
34 c198 47 224 60 223 111 -1 19 2 42 6 51 4 9 6 45 4 80 -3 57 -5 61 -14 39z"/>
<path d="M9075 1633 c-22 -9 -69 -21 -105 -29 -106 -21 -124 -26 -137 -37 -19
-14 -17 -117 1 -117 8 0 18 5 21 10 3 6 -1 10 -9 10 -9 0 -16 6 -16 14 0 10
20 18 58 26 31 6 75 17 97 25 98 33 183 55 209 55 25 0 65 32 66 53 0 13 -144
5 -185 -10z"/>
<path d="M9887 1585 c-26 -23 -33 -25 -96 -19 l-68 7 4 -84 c2 -46 8 -86 12
-89 5 -3 4 -29 -2 -57 -10 -50 -13 -54 -63 -77 -57 -27 -115 -89 -89 -94 22
-5 141 36 167 58 21 17 22 23 19 150 l-3 132 41 -7 c25 -4 54 -2 76 6 33 12
35 16 35 56 0 24 -1 43 -2 43 -2 0 -16 -12 -31 -25z"/>
<path d="M8006 1369 c-37 -29 -32 -40 17 -38 23 1 52 -1 63 -5 18 -5 23 -2 28
20 5 18 3 30 -6 35 -24 15 -75 9 -102 -12z"/>
<path d="M9448 1353 c-10 -2 -18 -9 -18 -14 0 -12 -37 -12 -45 1 -4 7 -12 7
-25 0 -10 -5 -35 -10 -54 -10 -20 0 -36 -4 -36 -9 0 -16 52 -24 167 -26 108
-3 113 -2 128 21 8 13 15 28 15 34 0 10 -97 12 -132 3z"/>
<path d="M8123 1313 c9 -15 226 -117 233 -110 10 9 -24 35 -56 44 -14 3 -32
14 -41 25 -9 10 -23 18 -32 18 -8 0 -17 5 -19 10 -2 6 -23 13 -46 16 -24 3
-42 1 -39 -3z"/>
<path d="M9073 1309 c-7 -7 -13 -18 -13 -24 0 -16 -33 -45 -51 -45 -14 0 -46
-67 -36 -76 5 -6 98 25 110 36 4 4 7 33 5 64 -2 46 -5 55 -15 45z"/>
<path d="M8785 1283 l-40 -4 -1 -65 c0 -35 -3 -66 -6 -69 -2 -3 -17 -6 -33 -7
-20 -2 -30 -10 -37 -30 -10 -28 -33 -38 -40 -17 -2 6 -16 12 -32 12 -26 2 -27
5 -23 35 l6 32 -58 0 c-57 0 -91 -18 -91 -47 0 -6 -10 -9 -22 -6 -22 5 -22 5
-5 -13 16 -17 20 -17 60 -3 41 16 43 15 102 -12 70 -33 94 -35 164 -12 l51 16
0 69 c0 48 4 68 13 68 6 0 43 -14 81 -30 38 -16 71 -28 73 -26 15 14 -32 51
-59 47 -5 -1 -8 15 -8 34 0 38 4 37 -95 28z"/>
</g>
</svg>
