<?xml version="1.0" encoding="UTF-8" standalone="no"?>
<svg
   version="1.0"
   width="258.10098pt"
   height="48.518982pt"
   viewBox="0 0 258.10098 48.518982"
   preserveAspectRatio="xMidYMid"
   id="svg488"
   sodipodi:docname="logo.svg"
   inkscape:version="1.2.2 (b0a8486541, 2022-12-01)"
   xmlns:inkscape="http://www.inkscape.org/namespaces/inkscape"
   xmlns:sodipodi="http://sodipodi.sourceforge.net/DTD/sodipodi-0.dtd"
   xmlns="http://www.w3.org/2000/svg"
   xmlns:svg="http://www.w3.org/2000/svg">
  <defs
     id="defs492" />
  <sodipodi:namedview
     id="namedview490"
     pagecolor="#ffffff"
     bordercolor="#000000"
     borderopacity="0.25"
     inkscape:showpageshadow="2"
     inkscape:pageopacity="0.0"
     inkscape:pagecheckerboard="0"
     inkscape:deskcolor="#d1d1d1"
     inkscape:document-units="pt"
     showgrid="false"
     inkscape:zoom="0.65746124"
     inkscape:cx="734.64407"
     inkscape:cy="83.655122"
     inkscape:window-width="1920"
     inkscape:window-height="1011"
     inkscape:window-x="0"
     inkscape:window-y="0"
     inkscape:window-maximized="1"
     inkscape:current-layer="svg488" />
  <g
     transform="matrix(0.01667319,0,0,-0.01336866,0,48.518983)"
     fill="#000000"
     stroke="none"
     id="g486">
    <path
       d="m 8800,2895 c 0,-8 -11,-25 -25,-38 -25,-23 -26,-25 -23,-155 l 3,-132 h -42 c -24,0 -43,5 -43,10 0,6 -16,10 -35,10 h -35 v 70 70 h -35 c -19,0 -35,4 -35,9 0,5 -31,12 -70,16 -38,4 -70,11 -70,16 0,5 -18,9 -40,9 -22,0 -40,-4 -40,-10 0,-5 -22,-12 -50,-16 -27,-4 -50,-10 -50,-15 0,-5 -11,-9 -25,-9 -20,0 -25,-6 -31,-37 -4,-21 -15,-44 -26,-51 -10,-7 -18,-21 -18,-31 0,-15 -7,-17 -57,-13 -32,3 -59,9 -61,13 -5,12 -52,11 -52,0 0,-5 -10,-11 -22,-13 -19,-2 -24,-10 -26,-45 -2,-24 -7,-43 -13,-43 -5,0 -9,-29 -9,-64 v -65 l 61,-62 60,-63 62,1 c 46,2 65,7 74,20 11,14 13,-16 13,-168 0,-173 1,-187 20,-207 12,-12 27,-22 35,-22 8,0 15,-7 15,-15 0,-10 -11,-15 -35,-15 -19,0 -35,5 -35,10 0,6 -16,10 -35,10 -19,0 -35,-4 -35,-10 0,-5 -20,-10 -45,-10 -38,0 -45,-3 -50,-23 -10,-40 -1,-109 15,-117 59,-29 73,-32 117,-27 26,3 56,9 67,13 17,7 18,-2 15,-195 -3,-134 -8,-204 -15,-209 -14,-9 -28,-150 -19,-200 4,-26 14,-43 33,-55 15,-9 21,-17 13,-17 -33,0 -51,-41 -52,-119 -1,-42 -1,-79 -1,-82 1,-4 -31,-10 -70,-13 -107,-11 -108,-12 -108,-132 V 573 l -60,-6 c -99,-11 -100,-12 -100,-155 0,-94 3,-127 14,-138 18,-18 103,-19 109,-1 2,8 21,3 63,-18 32,-16 61,-33 64,-36 3,-3 17,-9 33,-13 15,-3 27,-11 27,-16 0,-6 5,-10 12,-10 6,0 28,-8 49,-17 38,-18 59,-48 59,-84 0,-28 44,-42 117,-35 47,4 66,2 77,-9 8,-8 24,-15 35,-15 12,0 21,-4 21,-10 0,-6 28,-10 64,-10 36,0 68,5 71,10 3,6 15,10 26,10 33,0 54,30 59,86 l 5,53 40,-19 c 22,-11 46,-19 53,-20 6,0 12,-4 12,-10 0,-5 23,-10 50,-10 28,0 50,4 50,9 0,5 17,12 38,16 50,8 64,39 60,141 -3,74 -4,78 -33,95 -16,10 -38,18 -47,18 -13,1 -18,9 -18,31 v 30 l -65,-2 c -36,-1 -68,1 -72,5 -3,4 10,7 30,7 20,0 37,4 37,9 0,5 20,12 45,15 24,4 47,11 50,17 4,5 19,9 35,9 15,0 30,4 32,9 2,4 20,11 41,15 l 37,7 V 415 c 0,-102 2,-117 20,-135 11,-11 26,-20 33,-20 7,0 18,-5 25,-12 7,-7 57,-13 127,-16 l 115,-5 v -47 c 0,-72 6,-80 56,-80 24,0 44,4 44,9 0,5 21,12 47,16 25,4 63,18 84,31 21,13 44,24 50,24 8,0 9,37 4,133 l -7,132 61,1 c 90,1 103,16 99,118 -3,72 -5,81 -23,85 -11,2 -22,7 -25,11 -3,4 -27,11 -55,16 l -50,9 -3,77 -3,76 66,7 c 36,4 65,11 65,15 0,5 29,12 65,15 36,4 68,11 71,16 3,5 14,9 24,9 10,0 23,6 27,14 4,8 17,15 28,18 19,3 20,12 23,151 2,119 0,151 -12,162 -17,17 -43,20 -48,5 -1,-5 -38,-13 -80,-16 -43,-4 -78,-11 -78,-15 0,-5 -25,-9 -55,-9 -30,0 -55,5 -55,10 0,6 -28,10 -64,10 -34,0 -91,3 -125,6 l -61,7 v 68 c 0,37 -5,69 -10,71 -6,2 -13,27 -17,56 -3,28 -10,52 -14,52 -5,0 -9,79 -9,176 0,176 0,176 25,196 24,19 25,23 25,144 v 124 h 50 c 28,0 50,5 50,10 0,6 13,10 29,10 31,0 64,25 94,72 18,30 24,128 7,128 -5,0 -10,6 -10,13 0,19 -33,47 -53,47 -9,0 -17,5 -17,10 0,15 -57,12 -64,-2 -5,-10 -7,-10 -12,0 -3,7 -24,12 -49,12 h -44 l -3,53 c -3,47 -5,52 -28,55 -14,2 -31,9 -39,15 -9,7 -52,12 -110,12 -116,-1 -176,-22 -167,-58 3,-12 3,-16 0,-9 -3,6 -23,12 -44,12 -21,0 -42,5 -45,10 -4,6 -6,73 -6,150 1,122 -1,143 -19,175 -11,19 -20,42 -20,50 0,12 -17,15 -90,15 -72,0 -90,-3 -90,-15 z m -50,-870 c 0,-8 5,-15 12,-15 9,0 9,-3 0,-12 -7,-7 -12,-40 -12,-80 v -68 h -111 c -101,0 -110,1 -98,16 7,9 23,20 36,25 21,8 23,15 23,79 v 70 h 75 c 60,0 75,-3 75,-15 z m 352,-79 c -3,-45 0,-55 22,-77 19,-17 26,-34 26,-61 0,-36 -1,-38 -33,-38 -24,0 -41,-9 -63,-31 l -29,-30 -5,133 c -3,73 -4,140 -2,148 2,11 14,14 45,12 l 42,-4 z m 48,-226 c 0,-5 -10,-10 -22,-9 -22,0 -22,1 -3,9 11,5 21,9 23,9 1,1 2,-3 2,-9 z m -540,-9 c -47,-5 -55,-9 -58,-28 -2,-13 -7,-23 -11,-23 -4,0 -6,14 -3,30 4,30 5,30 66,28 l 61,-1 z m -37,-171 c 12,-1 32,-9 45,-19 39,-33 27,-133 -20,-168 -9,-7 -19,-23 -21,-36 -3,-14 -5,-8 -6,15 0,20 -6,38 -11,40 -6,2 -13,45 -16,98 -2,52 -1,89 2,83 3,-7 15,-13 27,-13 z m 487,-15 c 0,-8 -5,-15 -11,-15 -7,0 -9,-9 -5,-23 6,-25 -10,-97 -22,-97 -4,0 -6,34 -4,75 3,66 6,75 23,75 10,0 19,-7 19,-15 z m 85,-49 c -9,-67 -35,-99 -35,-42 0,20 4,36 9,36 5,0 12,16 16,36 10,55 18,33 10,-30 z m -395,-27 c 0,-51 -4,-78 -10,-74 -5,3 -10,15 -10,26 0,10 -4,19 -10,19 -5,0 -10,11 -10,25 0,14 5,25 10,25 6,0 10,14 10,30 0,17 5,30 10,30 6,0 10,-34 10,-81 z m 353,-206 c -7,-2 -21,-2 -30,0 -10,3 -4,5 12,5 17,0 24,-2 18,-5 z m -403,-13 c 0,-6 38,-10 93,-11 50,-1 84,-3 75,-6 -10,-2 -18,-8 -18,-11 0,-4 -56,-3 -125,2 -92,7 -125,13 -125,23 0,9 15,13 50,13 28,0 50,-4 50,-10 z m 303,3 c -13,-2 -35,-2 -50,0 -16,2 -5,4 22,4 28,0 40,-2 28,-4 z"
       id="path264" />
    <path
       d="m 10393,2015 c -20,-22 -15,-49 12,-69 l 24,-18 v -314 c -1,-269 1,-315 14,-329 19,-18 43,-20 50,-2 3,6 6,-23 6,-66 1,-69 3,-78 19,-75 14,3 17,14 17,66 0,34 3,62 8,62 4,0 7,7 7,15 0,8 4,15 9,15 6,0 12,17 14,38 2,25 4,16 5,-26 2,-45 6,-64 17,-68 9,-4 15,-19 15,-40 0,-27 4,-34 19,-34 27,0 34,29 26,105 -9,78 0,135 21,135 8,0 19,11 24,25 5,14 14,25 20,25 5,0 12,11 16,25 3,14 10,25 15,25 5,0 9,11 9,24 0,29 15,42 24,21 3,-8 13,-15 22,-15 14,0 16,16 12,140 -2,111 -6,143 -18,151 -11,8 -12,12 -2,16 6,2 12,16 12,29 0,17 -6,24 -20,24 -11,0 -20,-5 -20,-11 0,-6 -7,-4 -15,5 -8,8 -15,26 -15,40 0,19 -5,26 -19,26 -11,0 -23,5 -26,10 -3,6 -19,10 -36,10 -19,0 -29,5 -29,15 0,21 -38,19 -43,-2 -3,-11 -5,-7 -6,10 -1,33 -25,36 -42,5 -8,-14 -14,-18 -17,-10 -6,18 -42,15 -42,-4 0,-24 -35,-12 -38,14 -4,25 -30,29 -49,7 z m 374,-302 c -3,-10 -5,-4 -5,12 0,17 2,24 5,18 2,-7 2,-21 0,-30 z m -151,-58 c 14,-13 13,-15 -5,-15 -13,0 -21,-7 -21,-17 0,-10 -3,-28 -6,-40 -5,-17 -2,-23 11,-23 15,0 15,-2 1,-15 -22,-23 -26,-19 -26,25 0,22 -4,40 -10,40 -14,0 -12,28 3,45 16,19 35,19 53,0 z"
       id="path266" />
    <path
       d="m 10923,2015 c -7,-8 -13,-23 -13,-33 0,-11 -11,-28 -25,-38 -22,-17 -25,-26 -25,-86 0,-37 5,-70 10,-73 6,-3 10,-50 10,-105 0,-55 -4,-102 -10,-105 -5,-3 -10,-19 -10,-36 0,-16 5,-29 10,-29 6,0 10,-11 10,-25 0,-14 5,-25 10,-25 6,0 10,-24 10,-52 0,-102 11,-158 31,-158 9,0 20,6 22,13 3,6 6,-7 6,-30 1,-36 4,-43 21,-43 14,0 20,7 20,24 0,13 3,31 6,40 7,17 30,22 36,7 2,-5 21,-12 44,-15 l 41,-7 6,38 c 15,88 2,163 -28,163 -8,0 -15,-4 -15,-10 0,-5 -8,-10 -17,-9 -11,0 -13,3 -5,6 9,3 12,46 12,164 0,99 4,159 10,159 6,0 10,11 10,25 0,14 -5,25 -10,25 -6,0 -5,8 2,20 10,16 10,24 0,40 -15,25 -15,47 0,52 16,6 3,37 -19,45 -10,4 -25,15 -34,25 -9,10 -26,18 -38,18 -12,0 -21,6 -21,15 0,19 -41,19 -57,0 z"
       id="path268" />
    <path
       d="m 11430,2020 c 0,-5 -7,-10 -16,-10 -9,0 -22,-7 -29,-16 -10,-15 -13,-15 -27,0 -23,22 -48,20 -48,-4 0,-11 5,-20 11,-20 5,0 -1,-11 -15,-24 -15,-13 -26,-34 -26,-49 0,-14 -4,-28 -9,-31 -4,-3 -11,-38 -13,-77 -3,-39 -10,-74 -16,-78 -5,-3 -13,-90 -17,-203 -4,-109 -11,-198 -16,-198 -5,0 -9,-20 -9,-45 0,-38 3,-45 19,-45 14,0 21,8 24,28 3,21 4,19 6,-11 1,-31 4,-38 19,-35 11,2 18,14 20,36 3,25 10,35 29,43 20,8 24,15 21,37 -5,34 12,55 30,36 7,-7 12,-22 12,-34 0,-11 7,-20 15,-20 8,0 15,5 15,10 0,6 7,10 15,10 10,0 15,-11 15,-35 0,-19 5,-35 10,-35 6,0 10,-7 10,-15 0,-19 29,-20 36,0 4,10 15,12 35,8 28,-5 29,-4 29,36 0,23 6,50 12,61 10,16 10,24 0,40 -11,18 -10,20 13,20 32,0 32,18 -1,50 -15,13 -21,26 -15,28 14,5 15,32 1,32 -5,0 -10,11 -10,25 0,14 -4,25 -10,25 -5,0 -10,20 -10,45 0,25 5,45 10,45 6,0 10,9 10,20 0,11 -6,20 -12,20 -10,0 -13,24 -13,85 0,61 3,85 13,85 6,0 12,9 12,20 0,15 -7,20 -25,20 -16,0 -25,6 -25,15 0,8 -5,15 -11,15 -5,0 -7,5 -4,11 4,5 -3,18 -14,28 -12,10 -21,28 -21,40 0,12 -6,21 -15,21 -8,0 -15,-4 -15,-10 z m 57,-352 c -2,-18 -4,-6 -4,27 0,33 2,48 4,33 2,-15 2,-42 0,-60 z m -110,-145 c -3,-10 -5,-4 -5,12 0,17 2,24 5,18 2,-7 2,-21 0,-30 z m 140,-130 c -3,-10 -5,-4 -5,12 0,17 2,24 5,18 2,-7 2,-21 0,-30 z"
       id="path270" />
    <path
       d="m 11760,2010 c 0,-17 -3,-19 -19,-10 -27,14 -41,13 -41,-5 0,-8 -7,-15 -15,-15 -8,0 -15,-4 -15,-9 0,-5 -9,-12 -19,-16 -13,-4 -22,-19 -26,-45 -4,-22 -11,-40 -16,-40 -5,0 -9,-38 -9,-85 0,-47 4,-85 9,-85 4,0 11,-28 15,-62 4,-39 12,-65 21,-71 8,-4 15,-13 15,-18 0,-6 16,-26 35,-45 41,-39 46,-71 12,-79 -29,-8 -50,-56 -45,-100 2,-19 0,-35 -4,-35 -4,0 -8,-9 -8,-20 0,-11 7,-20 15,-20 8,0 15,-7 15,-15 0,-8 9,-15 19,-15 10,0 21,7 25,15 3,8 15,15 26,15 14,0 20,7 21,23 0,12 3,16 6,10 2,-7 20,-13 39,-13 30,0 34,3 34,25 0,16 6,25 15,25 10,0 15,10 15,28 0,15 7,36 15,46 20,27 20,106 0,106 -8,0 -15,9 -15,20 0,12 -12,32 -26,45 -47,43 -70,114 -44,130 6,3 10,-3 10,-14 0,-11 5,-23 10,-26 6,-3 10,-19 10,-36 0,-22 5,-29 20,-29 18,0 20,7 20,70 0,68 1,70 25,70 18,0 25,5 25,20 0,11 -4,20 -9,20 -5,0 -11,8 -14,19 -3,14 0,17 13,14 16,-4 18,1 15,39 -1,23 -3,58 -4,76 -1,25 -5,32 -21,32 -11,0 -23,7 -26,15 -4,8 -17,15 -29,15 -13,0 -32,11 -43,25 -24,30 -52,33 -52,5 z m 97,-572 c -3,-8 -6,-5 -6,6 -1,11 2,17 5,13 3,-3 4,-12 1,-19 z"
       id="path272" />
    <path
       d="m 12050,1996 c 0,-21 -6,-36 -15,-40 -8,-3 -15,-15 -15,-26 0,-11 -4,-20 -10,-20 -14,0 -13,-177 1,-182 7,-2 12,-23 12,-46 0,-44 14,-55 39,-28 19,20 68,-32 68,-73 0,-17 -4,-31 -10,-31 -5,0 -10,-9 -10,-20 0,-11 5,-20 10,-20 6,0 10,-33 10,-80 0,-44 4,-80 9,-80 5,0 7,-8 4,-19 -3,-10 0,-22 6,-25 7,-5 11,-49 11,-117 0,-102 1,-109 20,-109 19,0 20,7 21,98 0,53 3,90 6,82 3,-8 11,-18 17,-22 8,-5 7,-8 -1,-8 -18,0 -16,-58 1,-76 29,-28 36,-15 36,65 0,70 2,79 20,84 17,4 20,14 20,56 0,40 3,51 16,51 35,0 44,26 44,127 0,86 2,101 20,116 11,9 25,17 31,17 8,0 10,17 7,50 -3,28 -1,47 4,44 5,-3 12,3 15,15 3,12 9,21 14,21 19,0 9,73 -13,91 -11,11 -16,19 -10,19 7,0 12,9 12,20 0,11 -6,20 -14,20 -9,0 -12,8 -8,25 4,22 1,25 -25,25 -16,0 -34,-5 -41,-12 -8,-8 -15,-8 -26,2 -9,7 -26,10 -41,6 -20,-5 -25,-3 -25,14 0,15 -7,20 -25,20 -20,0 -25,-5 -25,-25 0,-18 -4,-23 -15,-19 -8,4 -15,15 -15,25 0,25 -18,24 -41,-2 l -18,-20 -20,20 c -32,32 -51,27 -51,-13 z m 240,-531 c 0,-35 -3,-43 -15,-39 -17,7 -21,34 -5,34 6,0 10,11 10,25 0,14 2,25 5,25 3,0 5,-20 5,-45 z"
       id="path274" />
    <path
       d="m 12560,2003 c 0,-25 -1,-25 -18,-10 -44,40 -44,36 -40,-334 4,-317 6,-352 21,-361 9,-5 17,-15 17,-23 0,-8 9,-20 20,-27 11,-7 20,-24 20,-38 0,-14 -9,-32 -20,-40 -11,-8 -20,-19 -20,-25 0,-6 9,-17 20,-25 11,-8 20,-20 20,-27 0,-7 9,-13 21,-13 19,0 20,5 17,95 -3,88 -2,95 20,111 12,9 22,23 22,30 0,8 5,14 10,14 6,0 10,58 10,155 0,129 3,157 15,161 16,6 21,44 7,44 -5,0 -9,7 -9,15 0,8 4,15 9,15 4,0 8,11 8,25 0,14 -4,25 -8,25 -5,0 -6,21 -2,46 9,55 3,128 -13,167 -12,28 -42,37 -49,15 -3,-8 -9,-4 -17,10 -7,13 -21,22 -36,22 -20,0 -25,-5 -25,-27 z"
       id="path276" />
    <path
       d="m 12923,2015 c -7,-8 -13,-18 -13,-24 0,-5 -18,-27 -39,-49 -25,-25 -42,-53 -46,-76 -4,-20 -11,-36 -16,-36 -5,0 -9,-9 -9,-19 0,-11 -4,-23 -10,-26 -6,-4 -10,-62 -10,-141 0,-83 4,-134 10,-134 6,0 10,-13 10,-30 0,-16 4,-30 9,-30 5,0 12,-16 15,-35 4,-19 11,-35 16,-35 6,0 10,-7 10,-15 0,-8 5,-15 12,-15 6,0 1,-9 -12,-20 -18,-15 -24,-34 -28,-76 -4,-51 -3,-56 14,-52 14,2 20,13 22,43 4,41 29,75 57,75 12,0 15,-15 15,-80 0,-73 2,-80 20,-80 18,0 20,7 20,55 0,30 5,55 10,55 6,0 10,-18 10,-40 0,-33 3,-40 20,-40 17,0 20,7 20,40 0,29 4,40 15,40 8,0 15,-7 15,-15 0,-8 9,-15 20,-15 17,0 20,7 20,44 0,25 6,51 14,59 8,8 17,35 21,61 6,37 12,47 31,52 19,5 24,13 24,36 0,21 -4,29 -13,25 -8,-3 -20,3 -28,14 -15,22 -35,25 -42,7 -4,-10 -8,-9 -16,2 -13,18 -15,100 -2,100 5,0 12,19 17,43 8,39 9,36 12,-40 2,-75 5,-83 22,-83 19,0 20,7 20,109 0,84 3,113 15,125 18,18 20,52 3,59 -10,4 -10,6 0,6 13,1 17,41 4,41 -5,0 -8,10 -8,22 1,19 -7,25 -39,33 -22,5 -46,18 -54,28 -8,11 -21,17 -32,14 -11,-3 -19,-1 -19,4 0,5 -13,9 -30,9 -16,0 -30,5 -30,10 0,15 -33,11 -47,-5 z m 117,-415 c 0,-51 -4,-70 -13,-70 -13,0 -13,30 -1,108 8,52 14,37 14,-38 z m -60,-31 c 0,-31 -4,-39 -17,-38 -11,0 -13,3 -5,6 14,6 16,43 2,43 -5,0 -10,9 -10,20 0,13 5,18 15,14 10,-4 15,-20 15,-45 z m -73,-31 c -3,-8 -6,-5 -6,6 -1,11 2,17 5,13 3,-3 4,-12 1,-19 z"
       id="path278" />
    <path
       d="m 13433,2015 c -20,-22 -15,-49 12,-69 24,-18 25,-24 25,-117 0,-73 3,-99 13,-99 8,0 8,-3 -2,-9 -21,-13 -18,-415 3,-436 18,-18 43,-19 49,-2 3,6 6,0 6,-15 1,-22 6,-28 22,-28 15,0 19,5 15,15 -3,8 -1,15 4,15 6,0 10,7 10,15 0,8 5,15 10,15 6,0 10,17 10,38 1,33 2,35 12,17 6,-11 16,-23 22,-27 7,-5 4,-8 -6,-8 -14,0 -18,-9 -18,-40 0,-29 4,-40 15,-40 10,0 15,-11 15,-35 0,-31 3,-35 26,-35 h 27 l -6,89 c -8,102 -1,151 20,151 7,0 16,8 20,18 9,24 35,47 60,54 19,5 22,1 25,-30 2,-26 8,-38 21,-40 15,-3 17,7 17,97 0,61 4,101 10,101 6,0 10,7 10,15 0,8 -4,15 -9,15 -5,0 -11,41 -13,91 -3,63 -9,93 -19,101 -11,7 -11,11 -1,15 6,2 12,16 12,29 0,17 -6,24 -20,24 -11,0 -20,-5 -20,-11 0,-6 -7,-4 -15,5 -8,8 -15,27 -15,41 0,24 -3,26 -25,21 -18,-5 -24,-3 -23,6 2,8 -10,14 -29,16 -21,2 -33,9 -33,18 0,21 -40,18 -41,-3 0,-11 -3,-13 -6,-5 -2,6 -16,12 -29,12 -14,0 -27,7 -30,15 -4,8 -15,15 -25,15 -14,0 -19,-7 -19,-26 0,-33 -33,-30 -38,4 -4,25 -30,29 -49,7 z m 210,-352 c -7,-2 -13,-19 -14,-36 -1,-18 -5,-43 -9,-57 -8,-24 -8,-23 -9,8 -1,17 -5,32 -11,32 -5,0 -10,7 -10,15 0,8 5,15 10,15 6,0 10,7 10,15 0,9 9,15 23,14 12,0 16,-3 10,-6 z"
       id="path280" />
    <path
       d="m 13949,2008 c 0,-13 -3,-17 -6,-10 -2,6 -13,12 -24,12 -14,0 -19,-7 -19,-25 0,-14 5,-25 10,-25 6,0 10,-6 10,-14 0,-8 6,-17 13,-20 10,-5 10,-7 0,-12 -15,-7 -17,-54 -3,-54 6,0 10,-40 10,-100 0,-60 -4,-100 -10,-100 -13,0 -13,-97 -1,-102 5,-1 11,-61 13,-132 3,-90 7,-131 16,-134 7,-2 12,-15 12,-28 0,-13 4,-24 10,-24 5,0 12,-11 16,-25 10,-38 44,-34 44,6 0,29 2,30 30,24 25,-5 30,-3 31,12 0,10 3,13 6,6 2,-7 11,-13 18,-13 11,0 15,-20 17,-77 3,-65 6,-78 21,-81 15,-3 17,6 17,77 0,47 4,81 10,81 6,0 10,9 10,20 0,11 5,20 10,20 6,0 10,18 10,40 0,22 -4,40 -10,40 -5,0 -10,11 -10,25 0,14 -4,25 -10,25 -5,0 -10,9 -10,20 0,11 5,20 10,20 6,0 10,6 10,13 0,21 33,54 48,49 11,-3 12,6 7,42 -6,37 -5,46 6,44 9,-2 15,8 17,30 2,18 -1,32 -7,32 -6,0 -11,4 -11,10 0,5 7,7 15,4 9,-4 18,1 22,12 4,10 2,19 -5,22 -16,5 -15,22 1,41 10,12 12,38 9,94 -4,73 -5,77 -28,77 -15,0 -24,6 -24,15 0,8 -7,15 -15,15 -9,0 -15,9 -15,25 0,21 -5,25 -29,25 -20,0 -31,-6 -34,-17 -3,-11 -5,-7 -6,10 -1,22 -6,27 -26,27 -18,0 -25,-5 -25,-19 0,-22 -42,-41 -48,-22 -6,19 -32,12 -32,-9 0,-11 -7,-20 -15,-20 -8,0 -15,4 -15,9 0,5 -8,12 -17,14 -17,4 -17,5 0,6 25,2 23,41 -3,41 -14,0 -20,-7 -21,-22 z m 288,-225 c -3,-10 -5,-4 -5,12 0,17 2,24 5,18 2,-7 2,-21 0,-30 z m -121,-127 c 26,-27 17,-46 -21,-46 -39,0 -45,14 -17,41 21,22 20,22 38,5 z m -57,-328 c 12,-15 11,-18 -3,-18 -10,0 -16,8 -16,22 0,12 1,19 3,17 1,-2 9,-12 16,-21 z"
       id="path282" />
    <path
       d="m 14530,2010 c 0,-17 -3,-18 -25,-8 -21,9 -28,8 -45,-7 -20,-18 -70,-15 -70,5 0,6 -9,10 -20,10 -13,0 -20,-7 -20,-20 0,-11 4,-20 9,-20 5,0 11,-62 13,-137 2,-98 7,-138 16,-141 15,-5 17,-182 2,-182 -6,0 -10,-26 -10,-59 0,-33 5,-63 10,-66 6,-3 10,-26 10,-51 0,-32 -4,-44 -15,-44 -8,0 -15,-9 -15,-20 0,-18 7,-20 58,-20 51,0 60,3 70,23 10,18 12,8 11,-58 -2,-121 -2,-125 21,-125 19,0 20,7 21,93 0,50 3,86 6,80 15,-39 111,25 100,67 -3,13 0,20 9,20 20,0 17,30 -3,46 -12,9 -14,13 -5,14 34,1 43,28 40,120 -2,50 0,90 5,90 10,0 9,38 -3,61 -7,13 -7,19 0,19 6,0 10,32 10,80 0,64 3,80 15,80 19,0 20,36 1,47 -7,4 -17,26 -23,48 -8,36 -12,40 -41,40 -24,0 -32,4 -32,17 0,28 -40,23 -41,-4 v -23 l -11,23 c -14,28 -48,30 -48,2 z m 127,-182 c -3,-7 -5,-2 -5,12 0,14 2,19 5,13 2,-7 2,-19 0,-25 z m -20,-80 c -3,-8 -6,-5 -6,6 -1,11 2,17 5,13 3,-3 4,-12 1,-19 z m 0,-305 c -3,-10 -5,-4 -5,12 0,17 2,24 5,18 2,-7 2,-21 0,-30 z m -47,-8 c 0,-8 -7,-15 -15,-15 -13,0 -14,3 -3,15 16,18 18,18 18,0 z"
       id="path284" />
    <path
       d="m 14864,2015 c -3,-8 -3,-19 1,-25 3,-5 -2,-10 -14,-10 -12,0 -22,-9 -27,-22 -4,-13 -9,-25 -13,-28 -26,-21 -56,-180 -35,-180 5,0 8,-18 6,-41 -3,-22 1,-46 7,-52 6,-6 11,-24 11,-39 0,-15 4,-28 10,-28 5,0 12,-11 16,-25 3,-14 10,-25 15,-25 5,0 9,-7 9,-15 0,-8 5,-15 11,-15 18,0 39,-27 39,-50 0,-11 -11,-31 -25,-44 -14,-13 -25,-28 -25,-35 0,-6 -4,-11 -10,-11 -5,0 -10,-16 -10,-35 0,-19 5,-35 10,-35 6,0 10,-4 10,-10 0,-5 -7,-10 -15,-10 -10,0 -15,-10 -15,-31 0,-26 3,-30 19,-26 16,4 21,-1 23,-21 2,-16 10,-28 21,-30 14,-3 17,4 17,37 0,24 5,41 11,41 7,0 20,10 30,22 11,11 19,16 19,10 0,-7 14,-12 31,-12 20,0 29,4 26,13 -2,6 5,20 15,29 11,9 22,35 25,57 3,23 10,41 14,41 5,0 9,20 9,45 0,25 -4,45 -9,45 -5,0 -12,11 -15,25 -4,14 -11,25 -16,25 -6,0 -10,7 -10,15 0,8 -7,15 -15,15 -9,0 -15,9 -15,21 0,12 -7,27 -16,33 -11,8 -13,20 -9,39 7,28 35,38 35,12 0,-8 9,-15 20,-15 15,0 20,7 20,29 0,23 5,30 23,33 16,2 22,9 21,26 0,12 4,22 9,22 5,0 7,13 5,30 -3,18 0,31 9,34 15,6 18,56 3,56 -6,0 -15,12 -20,26 -6,14 -19,28 -30,31 -11,3 -20,9 -20,14 0,5 -9,9 -19,9 -33,0 -51,11 -51,31 0,25 -27,24 -40,-2 l -11,-20 -18,20 c -21,25 -39,27 -47,6 z"
       id="path286" />
    <path
       d="m 15330,2010 c 0,-17 -3,-19 -19,-10 -29,15 -61,12 -61,-5 0,-8 -5,-15 -11,-15 -14,0 -39,-25 -39,-39 0,-6 -5,-11 -11,-11 -6,0 -9,-7 -5,-15 3,-8 1,-15 -4,-15 -6,0 -10,-16 -10,-35 0,-19 -4,-35 -10,-35 -5,0 -10,-22 -10,-50 0,-27 4,-50 9,-50 4,0 11,-30 15,-67 5,-45 13,-71 25,-82 10,-9 22,-27 26,-41 9,-28 29,-50 45,-50 7,0 10,-13 8,-32 -2,-25 -8,-34 -25,-36 -26,-4 -39,-51 -30,-107 4,-24 1,-35 -9,-39 -10,-4 -14,-17 -12,-38 4,-46 31,-44 39,2 6,35 6,35 8,-8 1,-42 -15,-72 -38,-72 -6,0 -11,-11 -11,-25 0,-18 5,-25 19,-25 11,0 22,6 24,13 4,10 6,9 6,0 1,-7 10,-13 21,-13 23,0 28,34 8,44 -10,5 -10,7 0,12 6,3 12,23 12,45 0,27 4,39 14,39 8,0 16,7 19,14 4,11 16,13 41,9 34,-5 36,-4 36,21 0,16 5,26 15,26 9,0 15,9 15,24 0,13 6,26 12,28 16,6 18,146 2,156 -6,4 -16,17 -23,30 -6,12 -18,22 -25,22 -8,0 -17,11 -20,25 -4,14 -11,25 -16,25 -6,0 -10,9 -10,20 0,11 5,20 10,20 6,0 10,12 11,28 l 1,27 11,-27 c 15,-39 47,-38 47,2 0,25 4,30 25,30 18,0 25,5 25,20 0,11 -4,20 -10,20 -5,0 -10,14 -10,30 0,17 5,30 10,30 6,0 10,27 10,60 0,55 -2,60 -25,66 -14,3 -25,10 -25,14 0,5 -12,10 -27,12 -20,2 -29,9 -31,26 -4,29 -42,31 -42,2 z"
       id="path288" />
    <path
       d="m 12830,1990 c 0,-13 7,-20 20,-20 13,0 20,7 20,20 0,13 -7,20 -20,20 -13,0 -20,-7 -20,-20 z"
       id="path290" />
    <path
       d="m 50,1946 c 0,-21 -6,-36 -15,-40 -8,-3 -15,-17 -15,-31 0,-14 -4,-25 -10,-25 -6,0 -10,-33 -10,-80 0,-44 4,-80 9,-80 5,0 11,-18 15,-40 6,-42 32,-63 46,-40 5,9 9,9 14,1 4,-6 12,-9 17,-6 5,4 9,-3 9,-14 0,-12 4,-21 9,-21 5,0 10,-68 13,-150 3,-98 8,-154 16,-162 7,-7 12,-31 12,-55 0,-36 3,-43 19,-43 14,0 21,8 24,28 3,20 4,16 6,-13 1,-42 15,-65 38,-65 9,0 13,19 13,69 0,60 2,69 20,74 17,4 20,14 20,56 0,40 3,51 16,51 35,0 44,26 44,128 0,83 3,102 18,115 10,10 24,17 30,17 8,0 12,22 12,65 0,58 2,65 20,65 29,0 28,66 -2,91 -11,11 -16,19 -10,19 7,0 12,9 12,20 0,11 -4,20 -10,20 -5,0 -10,11 -10,25 0,22 -4,25 -34,25 -19,0 -37,-6 -39,-12 -4,-10 -6,-10 -6,0 -1,15 -51,16 -51,1 0,-6 -7,-4 -15,5 -8,8 -15,19 -15,25 0,6 -5,11 -11,11 -14,0 -39,-26 -39,-40 0,-7 -6,-6 -15,4 -8,8 -15,19 -15,25 0,16 -19,13 -36,-4 -9,-8 -22,-15 -30,-15 -8,0 -17,7 -20,15 -4,8 -15,15 -25,15 -15,0 -19,-7 -19,-34 z m 340,-146 c 0,-5 -2,-10 -4,-10 -3,0 -8,5 -11,10 -3,6 -1,10 4,10 6,0 11,-4 11,-10 z m -23,-52 c -3,-8 -6,-5 -6,6 -1,11 2,17 5,13 3,-3 4,-12 1,-19 z m -64,-318 c 9,0 9,-2 1,-8 -7,-4 -14,-18 -17,-32 -2,-14 -4,-2 -4,25 -1,28 1,42 4,33 2,-10 10,-18 16,-18 z"
       id="path292" />
    <path
       d="m 690,1955 c 0,-18 -5,-25 -20,-25 -11,0 -20,5 -20,10 0,21 -39,10 -42,-12 l -3,-23 -21,21 c -12,12 -36,25 -53,29 -28,6 -31,4 -31,-18 0,-14 6,-32 13,-39 11,-10 15,-85 20,-322 4,-192 10,-313 17,-320 5,-5 10,-16 10,-24 0,-7 7,-20 15,-28 11,-12 15,-39 15,-110 v -94 h 30 c 28,0 30,2 30,40 0,22 -4,40 -10,40 -5,0 -10,20 -10,45 0,25 4,45 9,45 5,0 12,12 14,28 2,15 5,-6 6,-45 1,-66 3,-73 21,-73 18,0 20,7 20,63 0,35 3,66 6,70 12,12 34,-6 34,-29 0,-25 7,-28 34,-18 10,4 16,18 16,40 0,19 5,34 10,34 12,0 14,97 2,102 -17,6 -22,67 -7,82 8,8 15,19 15,25 0,6 7,11 16,11 20,0 44,24 44,45 0,11 -5,15 -15,11 -9,-3 -15,0 -15,9 0,10 10,15 28,15 h 27 l -1,113 c -4,245 -2,227 -27,227 -17,0 -27,10 -40,40 -12,28 -23,40 -37,40 -11,0 -20,-7 -20,-15 0,-8 -7,-15 -15,-15 -9,0 -15,9 -15,25 0,20 -5,25 -25,25 -20,0 -25,-5 -25,-25 z m 12,-365 c -3,-21 -10,-30 -23,-30 -11,0 -19,7 -19,15 0,8 5,15 10,15 6,0 10,7 10,15 0,8 6,15 13,15 9,0 12,-10 9,-30 z m -45,-317 c -3,-10 -5,-2 -5,17 0,19 2,27 5,18 2,-10 2,-26 0,-35 z"
       id="path294" />
    <path
       d="m 1150,1970 c 0,-5 -7,-10 -15,-10 -7,0 -19,-8 -25,-17 -10,-17 -10,-17 -20,0 -13,20 -50,23 -50,3 0,-8 6,-16 12,-18 8,-3 3,-14 -15,-30 -20,-19 -27,-35 -27,-62 0,-20 -4,-36 -9,-36 -5,0 -11,-30 -13,-67 -2,-39 -9,-68 -16,-71 -8,-2 -12,-33 -12,-96 0,-52 -5,-97 -11,-103 -6,-6 -9,-47 -7,-107 2,-53 0,-96 -4,-96 -5,0 -8,-20 -8,-45 0,-38 3,-45 19,-45 14,0 21,8 24,28 4,25 4,25 6,-5 1,-26 5,-33 22,-33 18,0 21,5 17,28 -4,28 11,52 32,52 5,0 10,11 10,25 0,33 20,56 36,41 6,-6 9,-18 6,-28 -5,-20 29,-39 36,-20 7,22 32,13 32,-12 0,-37 18,-76 35,-76 8,0 15,8 15,18 0,10 7,19 15,19 8,0 15,-4 15,-9 0,-4 8,-8 19,-8 15,0 19,11 24,71 9,107 3,242 -11,247 -8,2 -12,29 -12,77 0,49 -4,75 -12,78 -10,4 -10,6 0,6 6,1 12,12 12,25 0,13 -6,27 -12,29 -10,4 -10,6 0,6 6,1 12,12 12,26 0,16 6,25 15,25 9,0 15,9 15,21 0,16 -5,20 -20,16 -15,-4 -20,0 -20,14 0,10 -4,19 -10,19 -5,0 -10,7 -10,15 0,8 -4,15 -9,15 -5,0 -12,11 -15,25 -4,14 -11,25 -16,25 -6,0 -10,11 -10,25 0,18 -5,25 -20,25 -11,0 -20,-4 -20,-10 z m 67,-352 c -2,-18 -4,-6 -4,27 0,33 2,48 4,33 2,-15 2,-42 0,-60 z m -107,-118 c 0,-5 -4,-10 -10,-10 -5,0 -10,5 -10,10 0,6 5,10 10,10 6,0 10,-4 10,-10 z m 137,-152 c -3,-7 -5,-2 -5,12 0,14 2,19 5,13 2,-7 2,-19 0,-25 z"
       id="path296" />
    <path
       d="m 1620,1961 c 0,-11 6,-22 13,-24 10,-4 10,-6 0,-6 -7,-1 -13,-12 -13,-26 0,-14 -4,-25 -10,-25 -5,0 -10,-7 -10,-15 0,-33 -51,2 -65,44 -3,12 -15,21 -25,21 -10,0 -20,5 -22,11 -2,6 -27,13 -56,15 -41,3 -52,0 -52,-11 0,-8 -4,-15 -10,-15 -6,0 -10,-42 -10,-105 0,-63 4,-105 10,-105 6,0 10,-43 10,-110 0,-67 -4,-110 -10,-110 -5,0 -10,-16 -10,-35 0,-19 5,-35 10,-35 6,0 10,-30 10,-70 0,-40 -4,-70 -10,-70 -15,0 -12,-38 3,-43 9,-3 12,-36 12,-123 0,-116 1,-119 23,-122 22,-3 22,-2 22,101 0,84 3,106 15,111 8,3 15,12 15,21 0,8 5,15 10,15 6,0 10,9 10,20 0,13 5,18 15,14 8,-4 15,-1 15,5 0,6 7,11 15,11 8,0 15,9 15,20 0,20 1,20 24,-2 12,-13 21,-29 18,-35 -2,-7 1,-13 7,-13 6,0 11,-7 11,-15 0,-8 5,-15 10,-15 6,0 10,-23 10,-51 0,-46 2,-51 20,-46 12,3 20,0 20,-7 0,-8 -11,-11 -30,-8 -29,4 -30,3 -30,-32 0,-20 5,-36 10,-36 6,0 10,-11 10,-25 0,-33 28,-33 40,1 6,14 8,37 5,52 -3,15 -2,21 1,15 3,-7 17,-13 30,-13 24,0 24,1 24,90 0,86 1,91 24,99 15,6 25,20 30,41 9,46 8,50 -11,50 -13,0 -14,3 -6,8 7,4 16,22 19,40 5,27 3,32 -12,32 -15,0 -16,2 -5,9 12,8 15,40 18,146 2,122 4,139 22,154 23,20 40,91 21,91 -12,0 -40,24 -40,34 0,3 7,6 15,6 22,0 30,27 13,43 -7,8 -30,17 -51,21 -20,4 -37,11 -37,16 0,6 -22,10 -50,10 -43,0 -50,-3 -50,-19 z m 87,-383 c -2,-13 -4,-3 -4,22 0,25 2,35 4,23 2,-13 2,-33 0,-45 z m -183,-124 c 12,-4 16,-20 16,-57 0,-50 0,-50 -19,-29 -10,12 -29,22 -42,23 -13,0 -18,3 -11,6 6,2 12,15 12,27 0,34 12,42 44,30 z"
       id="path298" />
    <path
       d="m 2030,1965 c 0,-11 -8,-13 -30,-8 -23,4 -30,2 -30,-11 0,-9 -5,-16 -11,-16 -21,0 -69,-59 -69,-85 0,-14 -4,-25 -10,-25 -6,0 -10,-35 -10,-85 0,-47 4,-85 9,-85 4,0 11,-25 14,-56 4,-39 12,-61 26,-73 12,-10 21,-23 21,-30 0,-6 14,-23 30,-38 17,-14 30,-31 30,-36 0,-5 -13,-23 -30,-39 -26,-25 -30,-35 -30,-83 0,-30 -4,-55 -10,-55 -5,0 -10,-7 -10,-15 0,-8 -4,-15 -10,-15 -5,0 -10,-11 -10,-25 0,-18 5,-25 20,-25 13,0 20,7 20,20 0,16 7,20 36,20 25,0 43,7 55,22 11,11 19,16 19,10 0,-7 9,-12 21,-12 22,0 49,22 49,39 0,6 7,11 15,11 10,0 15,10 15,29 0,16 5,31 10,33 6,2 14,29 17,61 5,49 3,57 -11,57 -9,0 -16,8 -16,20 0,10 -13,33 -30,50 -16,17 -30,37 -30,45 0,8 -4,15 -10,15 -5,0 -10,7 -10,15 0,8 -5,15 -12,15 -6,0 -2,8 9,18 11,9 22,24 26,32 3,8 6,-8 6,-37 1,-65 8,-83 33,-83 18,0 20,5 14,43 -8,59 4,102 29,102 14,0 21,8 23,28 2,19 -1,27 -12,27 -9,0 -16,9 -16,20 0,11 5,20 11,20 6,0 17,6 25,14 16,17 19,36 4,36 -5,0 -10,9 -10,21 0,24 -51,79 -75,79 -9,0 -26,11 -39,25 -26,28 -56,33 -56,10 z"
       id="path300" />
    <path
       d="m 2307,1973 c -4,-3 -7,-18 -7,-32 0,-15 -9,-34 -19,-43 -18,-15 -19,-30 -17,-254 2,-166 7,-239 15,-242 7,-2 11,-29 11,-68 0,-35 4,-64 10,-64 6,0 6,-9 0,-26 -15,-38 -12,-54 10,-54 11,0 20,5 20,10 0,6 5,10 10,10 6,0 10,-22 10,-50 0,-43 3,-50 20,-50 17,0 20,7 20,49 0,34 4,51 15,55 8,3 15,1 15,-4 0,-15 47,-12 53,3 3,6 6,-18 6,-55 1,-61 3,-68 21,-68 18,0 20,7 20,75 0,43 5,84 12,95 10,16 10,24 0,40 -6,11 -12,29 -12,41 0,22 -22,49 -39,49 -7,0 -11,28 -11,74 0,41 -4,86 -10,100 -6,17 -6,26 0,26 14,0 12,68 -2,72 -8,3 -4,12 10,26 24,24 29,57 10,66 -10,5 -10,7 0,12 14,7 16,54 2,54 -5,0 -10,23 -10,51 0,39 -3,50 -13,46 -8,-3 -20,3 -28,14 -7,10 -24,19 -37,19 -12,0 -25,7 -28,15 -6,15 -45,21 -57,8 z"
       id="path302" />
    <path
       d="m 2636,1965 c -3,-8 -15,-15 -26,-15 -11,0 -20,-6 -20,-12 0,-9 -3,-9 -9,1 -11,17 -41,7 -41,-14 0,-8 5,-15 10,-15 13,0 13,-27 0,-32 -15,-5 -16,-231 -1,-236 6,-2 11,-15 11,-28 0,-13 4,-24 9,-24 5,0 13,-40 17,-90 3,-49 10,-90 15,-90 5,0 9,-7 9,-15 0,-8 4,-15 9,-15 5,0 7,-8 4,-19 -3,-11 3,-24 15,-32 10,-8 22,-24 26,-36 4,-13 12,-23 17,-23 5,0 9,-7 9,-15 0,-8 -4,-15 -10,-15 -20,0 -9,-31 15,-40 22,-8 24,-15 27,-82 2,-57 6,-73 18,-73 11,0 16,16 20,65 5,64 5,65 33,62 20,-2 27,2 27,15 0,10 9,24 19,30 12,7 21,26 23,45 2,25 8,34 26,36 15,2 22,-2 22,-12 0,-9 8,-16 20,-16 16,0 20,7 20,35 0,31 -3,35 -25,35 -17,0 -25,5 -24,18 0,10 3,12 6,5 7,-18 43,-16 43,2 0,8 4,15 10,15 5,0 12,16 16,35 3,19 10,35 15,35 14,0 11,80 -3,81 -7,0 -2,5 11,10 19,8 23,15 19,44 -2,19 0,35 4,35 4,0 8,14 8,30 0,22 -5,30 -17,30 -16,1 -16,2 -2,13 12,9 16,33 18,110 1,58 -3,97 -9,97 -5,0 -7,7 -4,15 4,8 1,22 -6,30 -17,21 -50,19 -51,-2 0,-11 -3,-13 -6,-5 -2,6 -11,12 -19,12 -8,0 -14,7 -14,15 0,10 -11,15 -35,15 -24,0 -35,-5 -35,-15 0,-8 -4,-15 -10,-15 -5,0 -10,-22 -10,-50 0,-47 -2,-50 -25,-50 -20,0 -25,-5 -25,-25 0,-14 -6,-25 -14,-25 -9,0 -13,-13 -13,-40 0,-25 4,-40 12,-40 8,0 14,-17 17,-40 2,-22 0,-40 -4,-40 -5,0 -8,-31 -8,-70 0,-56 -3,-70 -15,-70 -10,0 -15,10 -15,30 0,17 5,30 10,30 17,0 13,147 -4,153 -10,4 -13,20 -10,59 2,29 1,77 -2,106 -5,42 -10,52 -25,52 -12,0 -21,10 -25,25 -7,28 -38,34 -48,10 z m 191,-202 c -3,-10 -5,-2 -5,17 0,19 2,27 5,18 2,-10 2,-26 0,-35 z m -10,-145 c -3,-8 -6,-5 -6,6 -1,11 2,17 5,13 3,-3 4,-12 1,-19 z"
       id="path304" />
    <path
       d="m 3226,1955 c -4,-14 -11,-25 -16,-25 -6,0 -10,-7 -10,-15 0,-8 -5,-15 -11,-15 -16,0 -37,-25 -45,-54 -3,-14 -9,-26 -13,-26 -24,0 -45,-125 -32,-192 5,-32 5,-48 -2,-48 -13,0 -1,-150 13,-164 6,-6 10,-18 10,-28 0,-10 5,-18 10,-18 6,0 10,-9 10,-20 0,-11 7,-23 15,-26 17,-7 21,-34 5,-34 -5,0 -12,-11 -16,-25 -3,-14 -10,-25 -15,-25 -5,0 -9,-34 -9,-75 0,-68 2,-75 20,-75 18,0 20,7 20,75 0,58 4,77 15,81 8,4 15,16 16,28 0,11 3,15 6,9 2,-7 9,-13 15,-13 5,0 16,-7 24,-15 9,-8 11,-15 6,-15 -16,0 -23,-47 -16,-115 6,-54 10,-65 25,-65 16,0 19,8 19,45 0,28 -4,45 -12,45 -9,0 -9,3 0,12 7,7 12,22 12,35 0,14 6,23 15,23 12,0 15,-13 15,-55 0,-30 -4,-55 -10,-55 -15,0 -12,-49 4,-66 8,-8 24,-14 35,-14 17,0 21,6 21,35 0,19 -3,35 -7,35 -11,0 -3,103 8,114 5,6 9,-1 9,-17 0,-20 5,-27 20,-27 17,0 20,7 20,49 0,31 5,53 15,61 8,7 15,21 15,31 0,11 5,19 10,19 6,0 10,16 10,35 0,29 5,37 25,45 15,6 25,17 25,30 0,13 -10,24 -25,30 -14,5 -25,14 -25,20 0,14 -37,12 -43,-2 -3,-7 -6,24 -6,69 -1,45 4,85 9,88 6,4 10,-11 10,-37 0,-54 19,-98 43,-98 13,0 17,8 17,38 0,21 -5,43 -12,50 -9,9 -9,12 0,12 8,0 12,22 12,70 0,40 4,70 10,70 6,0 10,23 10,50 0,28 -4,50 -10,50 -5,0 -10,10 -10,23 0,15 -10,26 -31,36 -16,7 -33,11 -36,7 -3,-3 -14,4 -24,15 -10,12 -35,23 -58,26 -23,3 -41,10 -41,14 0,5 -13,9 -29,9 -22,0 -30,-6 -35,-25 z m 105,-478 c -8,-8 -11,7 -11,49 0,79 14,93 18,18 2,-31 -2,-62 -7,-67 z m -53,21 -2,-73 -3,63 c -3,39 -8,62 -16,62 -7,0 -6,4 3,10 8,5 16,10 18,10 1,0 1,-33 0,-72 z"
       id="path306" />
    <path
       d="m 3710,1966 c 0,-9 -7,-12 -19,-9 -10,2 -25,-3 -34,-11 -20,-20 -34,-20 -53,-1 -9,8 -24,15 -35,15 -10,0 -19,-7 -19,-15 0,-8 5,-15 10,-15 6,0 10,-13 10,-30 0,-16 -4,-30 -10,-30 -15,0 -13,-117 3,-122 9,-4 13,-58 16,-216 1,-117 7,-212 12,-212 5,0 9,-18 9,-40 0,-29 -4,-40 -15,-40 -8,0 -15,-7 -15,-15 0,-8 -4,-15 -10,-15 -5,0 -9,-33 -8,-75 0,-67 2,-75 20,-75 16,0 19,6 17,33 -1,17 -1,48 0,68 1,33 4,37 31,41 17,3 30,1 30,-4 0,-21 37,-5 46,20 9,22 10,17 8,-35 -3,-61 -2,-63 21,-63 23,0 25,3 25,52 0,40 3,49 12,40 15,-15 48,-16 48,-2 0,6 9,10 19,10 25,0 40,58 20,71 -12,7 -12,9 0,9 9,0 12,9 9,30 -3,18 0,31 9,34 7,3 13,14 13,25 0,11 5,23 10,26 6,3 10,19 10,36 0,16 -4,29 -10,29 -5,0 -10,18 -10,40 0,23 5,40 11,40 6,0 9,7 5,15 -3,8 -1,15 5,15 12,0 1,99 -14,118 -7,8 -5,12 7,12 11,0 16,9 16,30 0,17 5,30 10,30 17,0 12,87 -5,94 -9,3 -15,18 -15,35 0,37 -3,39 -81,46 -35,3 -65,10 -67,15 -5,15 -42,12 -42,-4 z m 147,-168 c -3,-7 -5,-2 -5,12 0,14 2,19 5,13 2,-7 2,-19 0,-25 z m -20,-130 c -3,-8 -6,-5 -6,6 -1,11 2,17 5,13 3,-3 4,-12 1,-19 z m -47,-283 c 0,-9 -9,-15 -22,-14 -17,1 -19,2 -5,6 9,2 17,9 17,14 0,5 2,9 5,9 3,0 5,-7 5,-15 z"
       id="path308" />
    <path
       d="m 4260,1940 c 0,-22 -4,-40 -9,-40 -5,0 -12,-11 -15,-25 -4,-14 -11,-25 -17,-25 -12,0 -39,25 -39,36 0,4 -14,20 -31,37 -26,24 -41,30 -90,33 l -59,3 v -154 c 0,-97 4,-155 10,-155 6,0 10,-27 10,-60 0,-33 -4,-60 -10,-60 -6,0 -10,-33 -10,-80 0,-47 4,-80 10,-80 6,0 10,-7 10,-15 0,-8 -4,-15 -10,-15 -5,0 -10,-22 -10,-50 0,-27 5,-50 10,-50 6,0 10,-16 10,-35 0,-42 25,-48 40,-10 5,14 14,25 19,25 5,0 12,14 16,30 5,22 12,30 29,30 12,0 28,9 36,20 24,33 48,25 56,-17 4,-21 15,-45 26,-54 19,-17 26,-79 8,-79 -5,0 -10,-9 -10,-20 0,-11 5,-20 10,-20 6,0 10,-9 10,-20 0,-11 -4,-20 -10,-20 -15,0 -12,-30 5,-47 24,-23 45,-9 45,31 0,29 3,33 20,29 19,-5 20,0 20,76 0,47 4,81 10,81 6,0 11,24 11,53 1,28 4,42 6,30 3,-15 12,-23 24,-23 16,0 19,7 19,44 0,26 -5,46 -12,49 -10,4 -10,6 0,6 13,1 17,47 4,53 -5,2 -12,20 -15,41 -4,28 -2,39 9,44 17,6 19,39 2,46 -8,3 -6,6 5,6 15,1 17,12 17,91 0,53 4,90 10,90 6,0 10,23 10,50 0,38 -4,50 -15,50 -8,0 -15,5 -15,10 0,6 7,10 15,10 10,0 15,10 15,30 0,28 -3,30 -35,30 -22,0 -38,6 -41,15 -4,11 -21,15 -55,15 h -49 z m 77,-6 c -3,-3 -12,-4 -19,-1 -8,3 -5,6 6,6 11,1 17,-2 13,-5 z m -117,-168 c 0,-3 -4,-8 -10,-11 -5,-3 -10,-1 -10,4 0,6 5,11 10,11 6,0 10,-2 10,-4 z m 127,-93 c -3,-10 -5,-2 -5,17 0,19 2,27 5,18 2,-10 2,-26 0,-35 z m -10,-110 c -3,-10 -5,-2 -5,17 0,19 2,27 5,18 2,-10 2,-26 0,-35 z m -166,-133 c 13,0 11,-49 -3,-64 -11,-11 -16,-10 -30,7 -23,26 -25,79 -3,71 9,-4 15,0 16,7 1,8 3,6 6,-3 2,-10 9,-18 14,-18 z m 166,-2 c -3,-8 -6,-5 -6,6 -1,11 2,17 5,13 3,-3 4,-12 1,-19 z"
       id="path310" />
    <path
       d="m 4560,1941 c 0,-22 -7,-46 -15,-55 -8,-8 -15,-24 -15,-35 0,-12 -4,-21 -10,-21 -6,0 -10,-28 -10,-65 0,-37 4,-65 10,-65 6,0 10,-13 10,-30 0,-16 5,-30 10,-30 6,0 8,-11 4,-25 -5,-21 -3,-25 15,-25 12,0 21,6 21,14 0,12 4,12 30,0 l 30,-15 v -134 c 0,-94 4,-135 12,-137 8,-3 13,-57 16,-177 4,-132 8,-174 18,-178 19,-7 44,21 44,49 0,17 3,19 9,9 5,-8 16,-11 25,-8 12,5 16,20 16,62 0,30 -4,55 -10,55 -14,0 -13,37 1,46 6,3 9,22 7,40 -3,27 0,34 13,34 12,0 19,12 23,43 4,24 4,51 0,60 -5,13 -2,16 10,11 34,-13 46,20 46,123 l 1,98 32,20 c 21,14 32,29 31,43 0,12 3,22 8,22 13,0 9,38 -4,43 -7,3 -3,6 10,6 20,1 22,6 22,52 0,40 -5,56 -22,70 -11,11 -16,19 -10,19 7,0 12,9 12,20 0,11 -4,20 -8,20 -5,0 -8,10 -8,23 1,17 -5,23 -26,25 -16,2 -28,-1 -28,-7 0,-6 -7,-11 -15,-11 -8,0 -15,5 -15,10 0,15 -50,12 -50,-2 -1,-7 -8,-1 -16,15 -8,15 -19,27 -25,27 -15,0 -39,-26 -39,-42 -1,-7 -8,-1 -16,15 -16,30 -29,34 -50,13 -14,-15 -54,-11 -54,5 0,5 -9,9 -20,9 -17,0 -20,-7 -20,-39 z m 317,-238 c -3,-10 -5,-2 -5,17 0,19 2,27 5,18 2,-10 2,-26 0,-35 z m -57,-288 c 0,-4 -7,-13 -15,-21 -13,-14 -15,-11 -15,21 0,32 2,35 15,21 8,-8 15,-17 15,-21 z m -87,-307 c 9,-6 9,-8 0,-8 -6,0 -14,-17 -16,-37 -2,-21 -4,0 -4,47 0,47 2,67 4,45 3,-22 10,-43 16,-47 z"
       id="path312" />
    <path
       d="m 5430,1971 c 0,-5 -10,-13 -22,-17 -25,-8 -61,-42 -71,-67 -3,-9 -11,-17 -16,-17 -5,0 -12,-16 -15,-35 -4,-19 -11,-35 -16,-35 -6,0 -10,-11 -10,-24 0,-13 -5,-26 -11,-28 -14,-5 -26,-158 -13,-158 5,0 8,-31 6,-70 -2,-46 0,-70 7,-70 6,0 11,-16 11,-35 0,-19 4,-35 9,-35 5,0 12,-11 15,-25 4,-14 11,-25 16,-25 6,0 10,-7 10,-15 0,-8 5,-15 11,-15 5,0 7,-5 4,-10 -8,-13 14,-35 43,-44 15,-5 22,-15 22,-32 0,-13 3,-24 8,-24 4,0 7,-46 7,-102 0,-90 2,-103 18,-106 15,-3 17,6 17,92 0,53 4,96 9,96 5,0 12,12 14,28 4,26 4,26 6,-5 0,-17 7,-34 14,-36 10,-4 10,-6 0,-6 -19,-1 -16,-58 3,-65 31,-12 34,-5 34,79 0,84 0,85 25,85 18,0 25,5 25,20 0,11 4,20 9,20 5,0 12,26 16,58 6,46 9,53 16,35 10,-28 39,-30 39,-3 0,12 -7,20 -17,20 -13,0 -14,3 -5,12 7,7 12,40 12,80 0,54 3,68 15,68 8,0 15,7 15,15 0,19 -32,33 -38,17 -2,-7 -13,-12 -24,-12 -18,0 -20,4 -14,33 4,17 11,34 16,35 6,2 10,26 10,53 0,37 4,49 15,49 8,0 15,9 15,20 0,11 -4,20 -9,20 -5,0 -7,9 -4,20 3,11 0,20 -6,20 -6,0 -11,9 -11,20 0,11 -4,20 -10,20 -5,0 -10,6 -10,14 0,7 -8,17 -17,20 -30,11 -69,36 -55,36 6,0 12,9 12,20 0,13 -7,20 -20,20 -11,0 -20,-6 -20,-13 0,-9 -10,-12 -30,-9 -16,2 -30,8 -30,13 0,5 -7,9 -15,9 -8,0 -15,-4 -15,-9 z m 137,-357 c -3,-3 -12,-4 -19,-1 -8,3 -5,6 6,6 11,1 17,-2 13,-5 z m -160,-136 c -2,-13 -4,-3 -4,22 0,25 2,35 4,23 2,-13 2,-33 0,-45 z m 68,12 c 3,-5 1,-10 -4,-10 -6,0 -11,5 -11,10 0,6 2,10 4,10 3,0 8,-4 11,-10 z m 27,-60 c -6,-45 -52,-37 -52,10 0,4 9,6 20,3 11,-3 20,0 20,6 0,6 4,11 8,11 5,0 7,-13 4,-30 z"
       id="path314" />
    <path
       d="m 5829,1973 c -1,-5 -1,-11 0,-15 0,-5 -3,-8 -8,-8 -5,0 -11,-10 -13,-22 l -3,-23 -21,21 c -12,12 -36,25 -54,29 -32,7 -32,7 -25,-26 4,-19 11,-35 16,-37 5,-2 9,-35 9,-73 0,-38 3,-69 8,-69 4,0 7,-20 7,-45 0,-25 -3,-45 -7,-45 -5,0 -8,-45 -8,-100 0,-55 3,-100 8,-100 4,0 6,-43 4,-96 -2,-60 1,-101 7,-107 6,-6 11,-17 11,-25 0,-7 6,-20 13,-27 6,-8 18,-21 25,-30 23,-27 50,-19 55,18 3,22 4,16 5,-20 2,-65 9,-83 33,-83 17,0 19,8 20,68 1,37 3,59 6,50 2,-10 8,-18 12,-18 5,0 11,-22 15,-50 5,-41 10,-50 26,-50 18,0 20,7 20,64 0,38 4,66 11,68 15,5 17,116 3,126 -24,15 -24,58 -1,86 12,14 26,26 31,26 13,0 36,28 36,45 0,12 -5,15 -16,11 -10,-4 -14,-1 -12,6 3,7 14,14 26,16 19,3 22,10 22,48 0,28 -4,44 -12,44 -9,0 -10,3 -2,8 15,10 24,101 17,177 -5,60 -8,65 -29,65 -15,0 -24,6 -24,15 0,9 -6,18 -14,21 -8,3 -12,13 -9,25 4,15 0,19 -21,19 -18,0 -26,-5 -27,-17 0,-14 -2,-15 -6,-3 -7,17 -29,40 -38,40 -10,0 -35,-28 -35,-39 0,-6 -12,-11 -27,-10 -16,0 -22,3 -15,6 17,7 15,43 -3,43 -8,0 -16,-3 -16,-7 z m 76,-383 c 0,-24 -4,-30 -22,-30 -27,0 -29,13 -6,40 23,27 28,25 28,-10 z m -48,-317 c -3,-10 -5,-2 -5,17 0,19 2,27 5,18 2,-10 2,-26 0,-35 z"
       id="path316" />
    <path
       d="m 6320,1966 c 0,-9 -8,-12 -25,-8 -17,3 -27,-1 -31,-12 -8,-20 -50,-21 -58,-1 -3,8 -15,15 -26,15 -11,0 -20,-7 -20,-15 0,-8 5,-15 10,-15 6,0 10,-11 10,-25 0,-14 -4,-25 -10,-25 -15,0 -13,-147 3,-152 9,-4 13,-56 15,-206 2,-115 7,-202 13,-202 5,0 9,-18 9,-39 0,-33 -4,-40 -25,-45 -24,-6 -25,-9 -24,-91 2,-77 3,-85 21,-85 16,0 19,6 17,33 -1,17 -1,50 0,72 1,37 3,40 31,40 17,0 30,-4 30,-9 0,-4 11,-6 24,-2 29,7 38,-1 24,-24 -7,-10 -19,-15 -30,-12 -15,4 -18,-2 -18,-33 0,-29 3,-36 17,-33 9,2 20,14 24,28 4,14 7,19 8,12 1,-8 10,-12 24,-10 18,2 23,11 28,53 3,28 7,44 7,38 2,-14 52,-18 52,-4 0,5 9,11 20,14 24,6 38,56 19,68 -10,6 -11,9 -1,9 18,0 15,40 -5,64 -17,20 -17,20 0,7 11,-9 21,-10 27,-5 4,5 10,56 12,113 2,72 7,106 16,109 15,5 16,39 2,44 -13,4 -15,138 -3,147 13,10 33,49 33,66 0,8 -9,20 -20,27 -13,9 -20,24 -20,45 0,29 -3,33 -27,35 -16,1 -46,2 -68,4 -22,1 -41,7 -43,13 -5,16 -42,14 -42,-3 z m 127,-298 c -3,-8 -6,-5 -6,6 -1,11 2,17 5,13 3,-3 4,-12 1,-19 z m -47,-283 c 0,-9 -9,-15 -22,-14 -17,1 -19,2 -5,6 9,2 17,9 17,14 0,5 2,9 5,9 3,0 5,-7 5,-15 z m -85,-164 c -3,-6 -11,-11 -16,-11 -5,0 -4,6 3,14 14,16 24,13 13,-3 z"
       id="path318" />
    <path
       d="m 6750,1965 c 0,-11 -7,-13 -28,-9 -19,4 -34,0 -45,-10 -20,-20 -47,-21 -47,-1 0,8 -9,15 -20,15 -15,0 -20,-7 -20,-25 0,-14 5,-25 10,-25 6,0 10,-7 10,-15 0,-8 -4,-15 -10,-15 -15,0 -13,-157 2,-162 10,-4 13,-56 15,-203 2,-115 7,-203 13,-209 6,-6 10,-22 10,-37 0,-20 -6,-28 -25,-33 -31,-8 -35,-46 -5,-46 11,0 20,4 20,10 0,5 7,7 15,4 8,-4 15,-1 15,5 0,6 7,11 15,11 8,0 15,-4 15,-10 0,-19 32,-10 37,10 3,11 9,20 13,20 4,0 10,-9 13,-20 5,-21 37,-28 37,-9 0,8 4,8 15,-1 17,-14 35,-5 36,18 0,11 3,12 6,5 2,-7 13,-13 23,-13 24,0 39,58 19,71 -12,7 -12,9 0,9 9,0 12,9 9,30 -3,18 0,31 9,34 10,4 13,32 13,105 0,75 4,103 15,115 16,16 20,46 7,46 -5,0 -7,14 -4,30 2,17 -1,37 -8,45 -9,10 -9,15 -1,15 6,0 11,14 11,30 0,20 5,30 15,30 11,0 15,12 15,44 0,30 -5,46 -15,50 -8,3 -15,17 -15,31 0,14 -4,25 -10,25 -5,0 -10,7 -10,15 0,11 -9,15 -32,13 -18,-1 -33,3 -36,10 -4,14 -32,16 -32,2 0,-5 -7,-10 -15,-10 -8,0 -15,5 -15,10 0,6 -9,10 -20,10 -11,0 -20,-7 -20,-15 z m 127,-207 c -3,-8 -6,-5 -6,6 -1,11 2,17 5,13 3,-3 4,-12 1,-19 z m -54,-385 c -7,-2 -19,-2 -25,0 -7,3 -2,5 12,5 14,0 19,-2 13,-5 z"
       id="path320" />
    <path
       d="m 7265,1970 c -8,-14 3,-30 21,-30 8,0 14,-7 14,-15 0,-8 -4,-15 -10,-15 -5,0 -10,-7 -10,-15 0,-8 -5,-15 -11,-15 -6,0 -9,-7 -5,-15 7,-20 -9,-19 -34,2 -24,21 -26,43 -5,43 8,0 15,9 15,20 0,30 -40,27 -41,-2 0,-13 -3,-17 -6,-10 -2,6 -11,12 -18,12 -7,0 -15,4 -17,8 -1,5 -29,12 -60,16 -48,5 -58,4 -58,-9 0,-8 -4,-15 -10,-15 -6,0 -10,-42 -10,-105 0,-63 4,-105 10,-105 6,0 10,-33 10,-79 0,-54 4,-81 13,-84 10,-4 10,-6 0,-6 -8,-1 -13,-15 -13,-36 0,-19 -4,-35 -10,-35 -5,0 -10,-11 -10,-25 0,-14 5,-25 10,-25 15,0 13,-137 -2,-142 -8,-3 -8,-12 3,-36 8,-18 17,-32 21,-32 5,0 8,-49 8,-110 0,-103 1,-110 20,-110 19,0 20,7 20,105 0,83 3,107 14,111 8,3 18,19 21,35 4,16 13,29 21,29 8,0 14,5 14,10 0,6 9,10 20,10 12,0 20,7 20,17 0,14 3,14 20,-5 11,-12 20,-26 20,-32 0,-5 4,-10 10,-10 5,0 7,-7 4,-15 -4,-8 -1,-15 5,-15 6,0 11,-17 11,-40 0,-22 -4,-40 -10,-40 -5,0 -10,-20 -10,-44 0,-25 5,-48 10,-51 6,-3 10,-17 10,-31 0,-27 23,-32 46,-10 16,17 19,56 4,56 -6,0 -9,28 -8,68 l 2,67 3,-60 c 4,-57 13,-75 41,-75 9,0 12,25 12,91 0,90 10,121 38,111 15,-5 17,51 2,79 -7,13 -7,19 0,19 5,0 10,7 10,15 0,8 5,15 10,15 6,0 10,9 10,20 0,11 -4,20 -10,20 -5,0 -10,9 -10,20 0,11 5,20 10,20 14,0 12,37 -2,43 -10,4 -10,6 0,6 14,1 17,41 2,41 -16,0 -12,57 5,64 11,4 15,21 15,66 0,33 4,60 10,60 16,0 12,70 -5,86 -8,9 -15,20 -15,25 0,5 7,9 15,9 18,0 20,27 2,44 -7,7 -29,16 -50,20 -20,4 -37,11 -37,16 0,13 -107,13 -115,0 z m 112,-36 c -3,-3 -12,-4 -19,-1 -8,3 -5,6 6,6 11,1 17,-2 13,-5 z m 30,-156 c -3,-8 -6,-5 -6,6 -1,11 2,17 5,13 3,-3 4,-12 1,-19 z m -127,-13 c 0,-16 -27,-32 -37,-22 -3,4 -3,13 0,22 8,20 37,20 37,0 z m 97,-187 c -2,-13 -4,-3 -4,22 0,25 2,35 4,23 2,-13 2,-33 0,-45 z m -177,-173 v -56 l -30,31 c -44,45 -39,77 13,79 14,1 17,-8 17,-54 z"
       id="path322" />
    <path
       d="m 1312,1943 c 5,-26 38,-29 38,-4 0,15 -6,21 -21,21 -14,0 -19,-5 -17,-17 z"
       id="path324" />
    <path
       d="m 3140,1939 c 0,-14 5,-19 17,-17 26,5 29,38 4,38 -15,0 -21,-6 -21,-21 z"
       id="path326" />
    <path
       d="m 3940,1939 c 0,-25 33,-22 38,4 2,12 -3,17 -17,17 -15,0 -21,-6 -21,-21 z"
       id="path328" />
    <path
       d="m 6980,1939 c 0,-25 33,-22 38,4 2,12 -3,17 -17,17 -15,0 -21,-6 -21,-21 z"
       id="path330" />
    <path
       d="m 1540,1931 c 0,-15 6,-21 21,-21 14,0 19,5 17,17 -5,26 -38,29 -38,4 z"
       id="path332" />
    <path
       d="m 2757,1913 c -18,-17 -5,-33 28,-33 28,0 35,4 35,20 0,15 -7,20 -28,20 -16,0 -32,-3 -35,-7 z"
       id="path334" />
    <path
       d="m 15010,1625 c 0,-28 4,-35 20,-35 16,0 20,7 20,35 0,28 -4,35 -20,35 -16,0 -20,-7 -20,-35 z"
       id="path336" />
    <path
       d="m 15390,1625 c 0,-28 4,-35 20,-35 16,0 20,7 20,35 0,28 -4,35 -20,35 -16,0 -20,-7 -20,-35 z"
       id="path338" />
    <path
       d="m 1792,1623 c 5,-26 38,-29 38,-4 0,15 -6,21 -21,21 -14,0 -19,-5 -17,-17 z"
       id="path340" />
    <path
       d="m 450,1581 c 0,-15 6,-21 21,-21 25,0 22,33 -4,38 -12,2 -17,-3 -17,-17 z"
       id="path342" />
    <path
       d="m 5170,1549 c 0,-24 4,-30 18,-27 10,2 18,14 20,31 3,22 -1,27 -17,27 -17,0 -21,-6 -21,-31 z"
       id="path344" />
    <path
       d="m 10782,1498 c 2,-22 9,-34 21,-36 14,-3 17,4 17,32 0,30 -4,36 -21,36 -17,0 -20,-5 -17,-32 z"
       id="path346" />
    <path
       d="m 11602,1463 c 2,-10 10,-18 18,-18 8,0 16,8 18,18 2,12 -3,17 -18,17 -15,0 -20,-5 -18,-17 z"
       id="path348" />
    <path
       d="m 14770,1459 c 0,-14 5,-19 17,-17 26,5 29,38 4,38 -15,0 -21,-6 -21,-21 z"
       id="path350" />
    <path
       d="m 15152,1463 c 2,-12 14,-19 36,-21 27,-3 32,0 32,17 0,17 -6,21 -36,21 -28,0 -35,-3 -32,-17 z"
       id="path352" />
    <path
       d="m 1877,1433 c -14,-13 -6,-33 13,-33 13,0 20,7 20,20 0,19 -20,27 -33,13 z"
       id="path354" />
    <path
       d="m 10820,1426 c 0,-28 12,-46 31,-46 14,0 19,7 19,30 0,25 -4,30 -25,30 -15,0 -25,-6 -25,-14 z"
       id="path356" />
    <path
       d="m 1840,1370 c 0,-13 7,-20 20,-20 13,0 20,7 20,20 0,13 -7,20 -20,20 -13,0 -20,-7 -20,-20 z"
       id="path358" />
    <path
       d="m 2210,1360 c 0,-23 4,-30 20,-30 16,0 20,7 20,30 0,23 -4,30 -20,30 -16,0 -20,-7 -20,-30 z"
       id="path360" />
    <path
       d="m 13780,1345 c 0,-18 5,-25 20,-25 15,0 20,7 20,25 0,18 -5,25 -20,25 -15,0 -20,-7 -20,-25 z"
       id="path362" />
    <path
       d="m 11380,1225 c 0,-58 2,-65 20,-65 18,0 20,7 20,65 0,58 -2,65 -20,65 -18,0 -20,-7 -20,-65 z"
       id="path364" />
    <path
       d="m 1540,1261 c 0,-15 6,-21 21,-21 25,0 22,33 -4,38 -12,2 -17,-3 -17,-17 z"
       id="path366" />
    <path
       d="m 7207,1274 c -14,-15 -6,-34 14,-34 14,0 19,5 17,17 -3,18 -20,27 -31,17 z"
       id="path368" />
    <path
       d="m 13890,1261 c 0,-15 6,-21 21,-21 25,0 22,33 -4,38 -12,2 -17,-3 -17,-17 z"
       id="path370" />
    <path
       d="m 2580,1230 c 0,-25 4,-31 18,-28 11,2 17,12 17,28 0,16 -6,26 -17,28 -14,3 -18,-3 -18,-28 z"
       id="path372" />
    <path
       d="m 3070,1240 c 0,-13 7,-20 20,-20 13,0 20,7 20,20 0,13 -7,20 -20,20 -13,0 -20,-7 -20,-20 z"
       id="path374" />
    <path
       d="m 1100,1181 c 0,-43 -4,-60 -15,-65 -23,-9 -18,-30 12,-43 36,-17 43,-16 43,6 0,11 -8,22 -17,24 -17,4 -17,5 0,6 14,1 17,11 17,66 0,58 -2,65 -20,65 -18,0 -20,-7 -20,-59 z"
       id="path376" />
    <path
       d="m 1490,1200 c 0,-33 3,-40 20,-40 17,0 20,7 20,40 0,33 -3,40 -20,40 -17,0 -20,-7 -20,-40 z"
       id="path378" />
    <path
       d="m 7150,1200 c 0,-33 3,-40 20,-40 17,0 20,7 20,40 0,33 -3,40 -20,40 -17,0 -20,-7 -20,-40 z"
       id="path380" />
    <path
       d="m 1330,1210 c 0,-13 7,-20 20,-20 13,0 20,7 20,20 0,13 -7,20 -20,20 -13,0 -20,-7 -20,-20 z"
       id="path382" />
    <path
       d="m 1570,1210 c 0,-13 7,-20 20,-20 13,0 20,7 20,20 0,13 -7,20 -20,20 -13,0 -20,-7 -20,-20 z"
       id="path384" />
    <path
       d="m 3950,1210 c 0,-13 7,-20 20,-20 13,0 20,7 20,20 0,13 -7,20 -20,20 -13,0 -20,-7 -20,-20 z"
       id="path386" />
    <path
       d="m 4110,1210 c 0,-13 7,-20 20,-20 13,0 20,7 20,20 0,13 -7,20 -20,20 -13,0 -20,-7 -20,-20 z"
       id="path388" />
    <path
       d="m 6990,1210 c 0,-13 7,-20 20,-20 13,0 20,7 20,20 0,13 -7,20 -20,20 -13,0 -20,-7 -20,-20 z"
       id="path390" />
    <path
       d="m 7230,1210 c 0,-13 7,-20 20,-20 13,0 20,7 20,20 0,13 -7,20 -20,20 -13,0 -20,-7 -20,-20 z"
       id="path392" />
    <path
       d="m 11440,1190 c 0,-13 7,-20 20,-20 13,0 20,7 20,20 0,13 -7,20 -20,20 -13,0 -20,-7 -20,-20 z"
       id="path394" />
    <path
       d="m 13540,1174 c 0,-28 3,-35 18,-32 11,2 18,14 20,36 3,27 0,32 -17,32 -17,0 -21,-6 -21,-36 z"
       id="path396" />
    <path
       d="m 14450,1175 c 0,-28 4,-35 20,-35 16,0 20,7 20,35 0,28 -4,35 -20,35 -16,0 -20,-7 -20,-35 z"
       id="path398" />
    <path
       d="m 5330,1156 c 0,-40 3,-46 21,-46 18,0 20,5 17,42 -2,31 -8,44 -20,46 -15,3 -18,-4 -18,-42 z"
       id="path400" />
    <path
       d="m 11090,1171 c 0,-25 4,-31 21,-31 16,0 20,5 17,27 -2,17 -10,29 -20,31 -14,3 -18,-3 -18,-27 z"
       id="path402" />
    <path
       d="m 11207,1194 c -14,-15 -6,-34 14,-34 14,0 19,5 17,17 -3,18 -20,27 -31,17 z"
       id="path404" />
    <path
       d="m 11683,1184 c -4,-10 -2,-19 5,-22 7,-2 12,-13 12,-24 0,-13 6,-18 18,-16 12,2 17,13 17,38 0,29 -4,36 -23,38 -14,2 -25,-3 -29,-14 z"
       id="path406" />
    <path
       d="m 13060,1160 c 0,-34 3,-41 18,-38 12,2 17,13 17,38 0,25 -5,36 -17,38 -15,3 -18,-4 -18,-38 z"
       id="path408" />
    <path
       d="m 1950,1160 c 0,-13 7,-20 20,-20 13,0 20,7 20,20 0,13 -7,20 -20,20 -13,0 -20,-7 -20,-20 z"
       id="path410" />
    <path
       d="m 10962,1113 c 2,-53 6,-68 18,-68 12,0 16,15 18,68 3,62 1,67 -18,67 -19,0 -21,-5 -18,-67 z"
       id="path412" />
    <path
       d="m 12820,1160 c 0,-15 5,-20 18,-18 9,2 17,10 17,18 0,8 -8,16 -17,18 -13,2 -18,-3 -18,-18 z"
       id="path414" />
    <path
       d="m 1173,1120 c 0,-22 3,-40 7,-40 4,0 7,-8 6,-17 0,-10 7,-19 18,-21 17,-4 18,0 11,29 -4,19 -7,46 -7,62 1,20 -4,27 -17,27 -15,0 -18,-8 -18,-40 z"
       id="path416" />
    <path
       d="m 1330,1125 c 0,-28 4,-35 20,-35 16,0 20,7 20,35 0,28 -4,35 -20,35 -16,0 -20,-7 -20,-35 z"
       id="path418" />
    <path
       d="m 3650,1125 c 0,-28 4,-35 20,-35 16,0 20,7 20,35 0,28 -4,35 -20,35 -16,0 -20,-7 -20,-35 z"
       id="path420" />
    <path
       d="m 3950,1125 c 0,-28 4,-35 20,-35 16,0 20,7 20,35 0,28 -4,35 -20,35 -16,0 -20,-7 -20,-35 z"
       id="path422" />
    <path
       d="m 6683,1153 c -29,-11 -2,-63 31,-63 12,0 16,10 16,35 0,35 -12,43 -47,28 z"
       id="path424" />
    <path
       d="m 6990,1125 c 0,-28 4,-35 20,-35 16,0 20,7 20,35 0,28 -4,35 -20,35 -16,0 -20,-7 -20,-35 z"
       id="path426" />
    <path
       d="m 11342,1143 c 2,-10 11,-17 21,-17 9,1 17,-2 17,-7 0,-5 9,-9 20,-9 29,0 25,29 -6,40 -38,15 -56,12 -52,-7 z"
       id="path428" />
    <path
       d="m 11440,1152 c 0,-19 26,-62 38,-62 17,0 29,33 14,38 -7,2 -12,10 -12,18 0,8 -9,14 -20,14 -11,0 -20,-4 -20,-8 z"
       id="path430" />
    <path
       d="m 11632,1143 c 5,-26 38,-29 38,-4 0,15 -6,21 -21,21 -14,0 -19,-5 -17,-17 z"
       id="path432" />
    <path
       d="m 12990,1120 c 0,-33 3,-40 20,-40 17,0 20,7 20,40 0,33 -3,40 -20,40 -17,0 -20,-7 -20,-40 z"
       id="path434" />
    <path
       d="m 14062,1143 c 5,-26 38,-29 38,-4 0,15 -6,21 -21,21 -14,0 -19,-5 -17,-17 z"
       id="path436" />
    <path
       d="m 14838,1153 c -10,-2 -18,-13 -18,-22 0,-15 8,-18 41,-18 35,0 40,2 37,21 -3,21 -26,29 -60,19 z"
       id="path438" />
    <path
       d="m 930,1130 c 0,-13 7,-20 20,-20 13,0 20,7 20,20 0,13 -7,20 -20,20 -13,0 -20,-7 -20,-20 z"
       id="path440" />
    <path
       d="m 1904,1136 c -10,-27 1,-71 19,-74 14,-3 17,4 17,42 0,35 -4,46 -15,46 -9,0 -18,-6 -21,-14 z"
       id="path442" />
    <path
       d="m 2780,1124 c -17,-44 -13,-64 15,-64 23,0 25,4 25,45 0,52 -24,63 -40,19 z"
       id="path444" />
    <path
       d="m 6750,1126 c 0,-13 -3,-38 -6,-55 -6,-28 -4,-31 20,-31 25,0 26,2 26,55 0,48 -2,55 -20,55 -14,0 -20,-7 -20,-24 z"
       id="path446" />
    <path
       d="m 12930,1130 c 0,-13 7,-20 20,-20 13,0 20,7 20,20 0,13 -7,20 -20,20 -13,0 -20,-7 -20,-20 z"
       id="path448" />
    <path
       d="m 14350,1130 c 0,-13 7,-20 20,-20 13,0 20,7 20,20 0,13 -7,20 -20,20 -13,0 -20,-7 -20,-20 z"
       id="path450" />
    <path
       d="m 752,1088 c 2,-31 8,-44 21,-46 14,-3 17,4 17,42 0,40 -3,46 -21,46 -18,0 -20,-5 -17,-42 z"
       id="path452" />
    <path
       d="m 2640,1110 c 0,-13 7,-20 20,-20 13,0 20,7 20,20 0,13 -7,20 -20,20 -13,0 -20,-7 -20,-20 z"
       id="path454" />
    <path
       d="m 3360,1095 c 0,-28 4,-35 20,-35 16,0 20,7 20,35 0,28 -4,35 -20,35 -16,0 -20,-7 -20,-35 z"
       id="path456" />
    <path
       d="m 11200,1105 c 0,-18 5,-25 20,-25 15,0 20,7 20,25 0,18 -5,25 -20,25 -15,0 -20,-7 -20,-25 z"
       id="path458" />
    <path
       d="m 14002,1088 c 2,-30 8,-43 18,-43 10,0 16,13 18,43 3,37 1,42 -18,42 -19,0 -21,-5 -18,-42 z"
       id="path460" />
    <path
       d="m 5810,1061 c 0,-55 2,-61 20,-61 19,0 21,5 18,57 -2,46 -7,59 -20,61 -16,3 -18,-5 -18,-57 z"
       id="path462" />
    <path
       d="m 12224,1105 c -9,-21 3,-45 21,-45 10,0 15,10 15,30 0,32 -26,43 -36,15 z"
       id="path464" />
    <path
       d="m 930,1055 c 0,-18 5,-25 20,-25 15,0 20,7 20,25 0,18 -5,25 -20,25 -15,0 -20,-7 -20,-25 z"
       id="path466" />
    <path
       d="m 3712,1063 c 5,-26 38,-29 38,-4 0,15 -6,21 -21,21 -14,0 -19,-5 -17,-17 z"
       id="path468" />
    <path
       d="m 5940,1060 c 0,-15 7,-20 25,-20 18,0 25,5 25,20 0,15 -7,20 -25,20 -18,0 -25,-5 -25,-20 z"
       id="path470" />
    <path
       d="m 6322,1063 c 2,-10 10,-18 18,-18 8,0 16,8 18,18 2,12 -3,17 -18,17 -15,0 -20,-5 -18,-17 z"
       id="path472" />
    <path
       d="m 223,1055 c -21,-24 -15,-45 12,-45 21,0 25,5 25,30 0,32 -17,39 -37,15 z"
       id="path474" />
    <path
       d="m 4020,1035 c 0,-35 5,-40 34,-29 20,8 21,31 2,50 -24,23 -36,16 -36,-21 z"
       id="path476" />
    <path
       d="m 5507,1063 c -14,-13 -6,-33 13,-33 13,0 20,7 20,20 0,19 -20,27 -33,13 z"
       id="path478" />
    <path
       d="m 12160,1040 c 0,-23 4,-30 20,-30 16,0 20,7 20,30 0,23 -4,30 -20,30 -16,0 -20,-7 -20,-30 z"
       id="path480" />
    <path
       d="m 162,1008 c 2,-30 8,-43 18,-43 10,0 16,13 18,43 3,37 1,42 -18,42 -19,0 -21,-5 -18,-42 z"
       id="path482" />
    <path
       d="m 2350,1025 c 0,-18 5,-25 20,-25 15,0 20,7 20,25 0,18 -5,25 -20,25 -15,0 -20,-7 -20,-25 z"
       id="path484" />
  </g>
</svg>
